<svg xmlns="http://www.w3.org/2000/svg" width="32" height="32" viewBox="0 0 32 32" fill="none"><path d="M17.6126 16.0002L24.4657 9.14687C24.9117 8.70109 24.9117 7.98032 24.4657 7.53453C24.0199 7.08875 23.2992 7.08875 22.8534 7.53453L16.0001 14.3879L9.147 7.53453C8.70102 7.08875 7.98046 7.08875 7.53469 7.53453C7.0887 7.98032 7.0887 8.70109 7.53469 9.14687L14.3878 16.0002L7.53469 22.8536C7.0887 23.2994 7.0887 24.0202 7.53469 24.4659C7.75684 24.6883 8.04895 24.8 8.34084 24.8C8.63274 24.8 8.92464 24.6883 9.147 24.4659L16.0001 17.6126L22.8534 24.4659C23.0758 24.6883 23.3676 24.8 23.6595 24.8C23.9514 24.8 24.2433 24.6883 24.4657 24.4659C24.9117 24.0202 24.9117 23.2994 24.4657 22.8536L17.6126 16.0002Z" fill="#F44336"/></svg>