<?xml version="1.0" encoding="UTF-8" standalone="no"?>
<svg xmlns:dc="http://purl.org/dc/elements/1.1/" xmlns:cc="http://creativecommons.org/ns#" xmlns:rdf="http://www.w3.org/1999/02/22-rdf-syntax-ns#" xmlns:svg="http://www.w3.org/2000/svg" xmlns="http://www.w3.org/2000/svg" xmlns:sodipodi="http://sodipodi.sourceforge.net/DTD/sodipodi-0.dtd" xmlns:inkscape="http://www.inkscape.org/namespaces/inkscape" inkscape:version="1.0 (4035a4fb49, 2020-05-01)" sodipodi:docname="wz-tariff-unlimit.svg" id="svg4" version="1.1" fill="none" viewBox="0 0 32 32" height="32" width="32"><metadata id="metadata10"/><defs id="defs8"/><path id="path2" stroke-width="0.2" stroke="#4caf50" fill="#4caf50" d="m 20.952575,10.6371 -10e-5,10e-5 -4.9525,4.3511 -4.9525,-4.3511 -10e-5,-10e-5 C 9.9176455,9.6466 8.4935255,9.1 7.0345055,9.1 c -3.49949,0 -6.334481,3.0545 -6.334481,6.7939 v 0.2122 c 0,3.7394 2.834991,6.7939 6.334541,6.7939 1.45896,0 2.88314,-0.5466 4.0129095,-1.5371 v -10e-5 l 4.9525,-4.3512 4.9526,4.3498 v 0 c 1.1297,0.9919 2.5539,1.5385 4.0129,1.5385 3.4996,0 6.3345,-3.0544 6.3345,-6.7939 v -0.2121 c 0,-3.7394 -2.835,-6.7939 -6.3346,-6.7939 -1.4589,0 -2.883099,0.5466 -4.0128,1.5371 z m -6.1035,5.3629 -4.7354,4.1599 v 0 C 9.2459355,20.9223 8.1520255,21.34 7.0345055,21.34 c -2.67674,0 -4.86784,-2.3421 -4.86784,-5.2339 v -0.2122 c 0,-2.8919 2.19116,-5.2339 4.86784,-5.2339 1.11752,0 2.21143,0.4178 3.0791695,1.1801 l 0.066,-0.0751 -0.066,0.0751 z m 14.9842,0.1061 c 0,2.8919 -2.1911,5.2339 -4.8678,5.2339 -1.1175,0 -2.2114,-0.4178 -3.0791,-1.1801 l -0.066,0.0751 0.066,-0.0751 -4.7355,-4.1599 4.7355,-4.1599 -0.066,-0.0751 0.066,0.0751 c 0.8677,-0.7624 1.9616,-1.1801 3.0791,-1.1801 2.6768,0 4.8678,2.3421 4.8678,5.2339 z"/></svg>