<svg xmlns:dc="http://purl.org/dc/elements/1.1/" xmlns:cc="http://creativecommons.org/ns#" xmlns:rdf="http://www.w3.org/1999/02/22-rdf-syntax-ns#" xmlns:svg="http://www.w3.org/2000/svg" xmlns="http://www.w3.org/2000/svg" xmlns:sodipodi="http://sodipodi.sourceforge.net/DTD/sodipodi-0.dtd" xmlns:inkscape="http://www.inkscape.org/namespaces/inkscape" inkscape:version="1.0 (4035a4fb49, 2020-05-01)" sodipodi:docname="wz-tariff-pro-a.svg" id="svg13" fill="none" viewBox="0 0 32 32" height="32" width="32"><metadata/><g transform="translate(-2.232611e-4,-0.49998304)" id="g6" clip-path="url(#clip0_142_1193)"><path id="path2" fill="#ff5a50" d="M 8.78569,29.6082 C 7.3169,27.9392 5.84818,26.2034 4.91347,24.1337 3.97883,21.9306 3.71176,19.3937 4.17911,16.9902 4.64647,14.5868 5.71462,12.3169 7.25018,10.3808 7.11668,12.0499 7.71754,13.7857 8.85247,15.0542 8.18483,11.8496 9.25304,8.37794 11.3894,5.841 13.5258,3.30407 16.4633,1.63493 19.5343,0.5 c -1.5355,1.60229 -1.7357,4.13922 -1.1349,6.27565 0.6009,2.13636 1.8694,4.00575 3.0043,5.94175 1.1349,1.9361 2.2032,3.939 2.2699,6.1421 0.6009,-1.1349 1.2685,-2.2699 1.6691,-3.5383 0.4006,-1.2685 0.6009,-2.6038 0.2671,-3.8723 1.2017,1.4688 1.8693,2.9376 2.2031,4.8069 0.3338,1.8694 0.2671,3.8054 0.0668,5.6748 -0.2671,2.0696 -0.8011,4.206 -1.9361,5.9418 -1.3352,2.0696 -3.4716,3.5384 -5.8083,4.3395 -4.1393,0.7344 -8.2118,0.1336 -11.34961,-2.6037 z"/><path id="path4" fill="#ffca5e" d="m 13.8594,32.0783 c 5.4745,2.1364 10.8822,-4.3395 7.8779,-9.3467 0,-0.0667 -0.0668,-0.0667 -0.0668,-0.1335 0.2671,2.7373 -0.4006,4.7401 -1.6691,5.8751 0.6677,-1.6023 0.2003,-3.4716 -0.6008,-5.0739 -0.8012,-1.5355 -1.9361,-2.9375 -2.804,-4.4063 -0.868,-1.5355 -1.5355,-3.2714 -1.135,-5.0072 -1.6022,1.2018 -2.7372,3.0043 -3.2045,4.9404 -0.4674,1.9361 -0.2003,4.0725 0.6676,5.8751 -1.0014,-0.7344 -1.7358,-1.9361 -1.8026,-3.2046 -1.0682,1.2685 -1.73576,2.9375 -1.66904,4.6066 7e-5,2.6037 2.06964,4.9403 4.40634,5.875 z"/></g><defs id="defs11"><clipPath id="clip0_142_1193"><rect y="0" x="0" id="rect8" transform="translate(0,0.5)" fill="#ffffff" height="32" width="32"/></clipPath></defs></svg>