<svg xmlns="http://www.w3.org/2000/svg" width="225" height="95" viewBox="0 0 225 95" fill="none"><g clip-path="url(#clip0_1035_2037)"><path d="M61.4695 90.3767C60.6957 90.7638 60.0379 91.3444 59.5156 91.9954C59.1286 92.4881 63.6248 92.849 63.5 93.5C62.5 93.5 58.5 92.5 57.5 92C54.0854 90.5396 51.3998 89.9632 48.4785 88.0717C33.3594 78.2712 23.8313 64.7141 21.9547 46.5296C20.9197 36.4036 21.2099 26.2864 24.1795 16.3627C24.2763 16.0548 24.2569 15.7205 24.373 14.6824C22.448 16.3803 21.0551 17.5856 19.6912 18.8172C14.4483 23.5855 8.79923 28.0283 4.96866 33.9491C4.81389 34.1866 4.62042 34.5033 4.36892 34.5737C3.63376 34.776 2.71481 35.1543 2.1441 34.9168C1.57338 34.6793 0.954298 33.7555 1.00266 33.1837C1.0994 32.1983 1.50567 31.1338 2.12475 30.3157C3.51768 28.4682 4.96866 26.6031 6.6808 25.0019C12.2235 19.829 17.9017 14.7704 23.5314 9.67656C24.1215 9.1575 24.7793 8.69123 25.437 8.24255C28.339 6.2631 29.906 6.59741 31.3764 9.61497C34.288 15.6149 37.1416 21.6413 40.0145 27.6588C40.1789 28.0019 40.4595 28.4418 40.3337 28.7145C40.0145 29.4271 39.6566 30.3245 39.0085 30.6588C38.5635 30.8875 37.3737 30.4828 36.9288 30.0253C36.2033 29.2687 35.739 28.2746 35.2843 27.3333C33.7076 24.0782 32.1986 20.7879 30.6219 17.524C30.3704 17.0137 29.8867 16.5914 29.3547 15.9404C29.0161 16.5826 28.7936 16.8994 28.6776 17.2425C28.3777 18.1398 28.0681 19.0372 27.8553 19.9521C25.6112 29.9813 25.35 40.0985 27.0041 50.1894C28.9097 61.8022 34.791 71.4795 43.7483 79.1686C45.4992 80.6729 47.3758 82.1069 49.3588 83.4618C49.9101 83.8401 50.4486 84.6393 51 85C51.8996 85.9325 53.0152 86.3474 54.3308 87.104C56.4105 88.3092 58.674 89.321 60.9956 90.1567C61.1503 90.2271 61.3148 90.3063 61.4695 90.3767Z" fill="#212121"/><path d="M211.586 44.8521C211.015 47.6909 209.604 50.2285 207.635 52.5576C204.15 56.6483 199.669 59.7959 194.872 62.6494C185.596 68.1673 175.524 70.4822 165.221 74.3021C152.971 78.845 140.128 83.3584 127.321 86.5549C111.987 90.3834 96.8076 94.6151 80.8182 95.0897C74.4385 95.2728 68.1214 94.8539 61.9612 93.3859C57.9486 92.4355 54.1319 91.1049 50.8465 88.8538C50.3206 88.4961 49.8302 88.1217 49.376 87.7463C46.7056 85.5227 45.1619 82.9368 44.7184 80.005C44.459 78.3454 44.5666 76.5808 45.0049 74.7047C45.7714 71.478 47.4695 68.5807 49.5242 65.8282C54.9517 58.5599 62.2064 52.8322 70.195 47.7596C80.6195 41.1539 92.0605 36.153 103.997 31.9784C119.293 26.6314 135.16 23.1136 151.403 20.9089C165.424 19.0071 179.509 18.0073 193.68 19.1713C195.491 19.3175 197.288 19.6122 199.094 19.8833C200.346 20.0625 201.284 20.5944 201.151 21.8531C201.054 22.7835 200.049 23.2979 198.444 23.0752C189.364 21.815 180.228 22.2476 171.103 22.7111C160.417 23.2621 149.868 24.6972 139.368 26.5673C118.998 31.9784 114.998 32.4784 95.498 40C86.4725 44.2555 68.8648 52.6092 61.5369 58.8847C57.7362 62.128 54.3142 65.64 51.7861 69.7243C50.8314 71.258 49.9968 72.8816 49.4344 74.5434C48.0952 78.5205 48.8344 81.9574 51.6432 84.5663C52.5081 85.3654 53.5602 86.0885 54.8082 86.7198C56.7813 87.726 58.9206 88.5556 61.1091 89.2277C61.9024 89.468 62.7041 89.6924 63.5052 89.8934C70.2145 91.5937 77.1536 91.6815 84.1049 91.2935C97.4309 90.559 118.498 85 138.498 79C156.517 74.3865 160.998 71.8506 182.498 64C190.498 61.3506 193.34 59.58 198.261 55.7718C200.484 54.0583 202.593 52.1769 204.362 50.119C205.652 48.6138 206.606 46.7762 207.173 44.9662C208.528 40.6379 206.652 36.9324 201.977 35.0362C199.233 33.9216 196.229 33.1502 193.242 32.6432C184.534 31.1766 175.701 30.8672 166.829 31.0734C159.483 31.2477 152.273 32.3217 145.096 33.5972C144.243 33.7485 143.348 34.0024 142.541 33.895C141.896 33.806 140.905 33.2836 140.847 32.8646C140.765 32.2749 141.227 31.45 141.773 31.0044C142.275 30.5913 143.176 30.5165 143.911 30.33C155.375 27.5338 167.07 26.9046 178.84 27.5666C184.586 27.8864 190.323 28.5493 195.977 29.4253C198.954 29.8858 201.92 30.8689 204.595 32.087C210.248 34.6696 212.671 39.3867 211.586 44.8521Z" fill="#212121"/></g><defs><clipPath id="clip0_1035_2037"><rect width="225" height="95" fill="white"/></clipPath></defs></svg>