<svg xmlns="http://www.w3.org/2000/svg" width="488" height="398" viewBox="0 0 488 398" fill="none"><path d="M79.6232 130.452C73.803 123.03 64.5629 120.048 57.6185 113.984C52.4439 109.585 47.7007 104.617 41.8547 101.071C41.6447 100.929 41.3726 101.065 41.2427 101.248C40.8005 101.889 41.6291 102.291 42.0821 102.592C47.3463 105.912 51.5908 110.571 56.3563 114.517C61.9927 119.913 69.6835 122.324 75.3697 127.625C76.1594 127.948 79.7155 132.688 79.6232 130.452Z" fill="#212121"/><path d="M78.558 133.503C79.5042 133.117 78.4045 132.131 78.0713 131.65C73.1635 126.096 65.9954 123.418 59.9989 119.283C52.1426 114.849 48.0167 106 39.8897 102.114C39.4839 101.985 39.2638 101.462 38.8304 101.473C38.3292 101.544 38.0813 102.327 38.5261 102.623C46.1047 105.931 50.1922 113.592 56.7396 118.316C63.7157 123.619 72.7171 126.453 78.3074 133.429C78.3076 133.428 78.3076 133.426 78.3078 133.425C78.3726 133.487 78.4659 133.517 78.558 133.503Z" fill="#212121"/><path d="M71.2154 129.711C73.6529 129.173 64.5512 124.15 63.7768 124.002C60.7206 122.386 57.6051 120.774 54.9835 118.494C51.8104 116.299 48.9594 113.214 45.6509 111.434C44.8193 111.829 45.2471 112.66 45.9336 112.939C47.6985 114.098 49.1802 115.488 50.8515 116.727C55.2791 120.393 60.0792 123.602 65.3675 125.866C67.5134 126.814 69.2637 128.535 71.2154 129.711Z" fill="#212121"/><path d="M80.2407 127.784C82.3336 127.256 74.2651 120.283 73.3304 119.802C66.5779 115.849 59.6627 112.099 54.1315 106.447C51.5319 103.961 48.8166 101.285 45.6766 99.5771C45.018 99.7226 45.0467 100.645 45.6593 100.86C50.4694 103.614 53.9562 108.143 58.3272 111.5C65.7168 117.603 74.3827 119.679 80.2407 127.784Z" fill="#212121"/><path d="M71.6814 90.5361C71.4466 90.9373 71.8074 91.0717 72.1585 91.0075C73.0027 91.0163 73.8942 91.3264 74.716 91.3839C75.0097 91.4146 75.2369 91.4517 75.5174 91.5043C76.178 91.5634 76.3338 90.7228 75.5788 90.715C74.4448 89.9323 72.8667 89.9447 71.6814 90.5361Z" fill="#212121"/><path d="M72.1692 93.5779C72.0854 93.1966 72.8138 93.0857 73.0895 93.0465C73.8792 93.0512 74.4619 93.6543 74.9255 94.2232C74.8974 94.2916 74.9008 94.3707 74.9369 94.4305C74.2856 95.1124 72.394 94.4945 72.1692 93.5779ZM72.0521 92.8354C69.9743 94.6232 75.4562 96.5956 75.5039 94.2347C75.1986 92.8731 73.2794 91.979 72.0521 92.8354Z" fill="#212121"/><path d="M72.8248 91.6374C72.3509 91.689 71.9605 92.4151 72.6426 92.2633C73.6128 91.7246 74.7443 92.4488 75.3103 93.2536C75.3103 93.2542 75.3107 93.2548 75.3112 93.2553C75.2147 93.5675 75.6314 93.6199 75.7595 93.3818C76.0766 92.2917 73.7553 91.1892 72.8248 91.6374Z" fill="#212121"/><path d="M73.3194 93.9392C73.0508 94.6551 73.9337 94.9301 74.2371 94.3C74.8761 93.612 73.6005 93.0819 73.3194 93.9392Z" fill="#212121"/><path d="M76.8476 98.0656C75.7518 98.606 77.8875 99.2146 78.337 98.9451C79.8932 98.1948 78.6447 97.1803 77.7087 96.586C77.6116 95.8913 78.0336 95.2995 78.1297 94.6685C77.4161 94.0826 77.1018 96.2574 77.1451 96.7163C77.2092 97.2868 77.9751 97.4702 78.3289 97.8612C78.6884 98.127 78.3745 98.4696 78.0161 98.4178C77.5899 98.3995 77.2388 98.1039 76.8476 98.0656Z" fill="#212121"/><path d="M73.6631 94.0411C73.3565 94.6655 74.1529 95.1396 74.5916 94.683C74.8047 94.4687 74.9364 93.5897 74.5745 93.4556C74.3618 92.8293 73.557 93.5948 73.6631 94.0411Z" fill="#212121"/><path d="M75.5711 99.9674C76.1274 99.9145 76.6467 100.007 77.0371 100.436C76.5296 100.359 76.0558 100.129 75.5711 99.9674ZM74.74 100.24C75.523 100.579 76.3748 101.017 77.2429 100.984C76.6739 101.849 74.8099 101.271 74.74 100.24ZM74.379 99.9181C73.2507 101.565 77.1589 102.906 77.7677 101.072C78.2874 100.558 77.2891 99.8282 76.8591 99.5794C76.246 99.364 74.6577 99.2295 74.379 99.9181Z" fill="#212121"/><path d="M73.7179 96.4588C73.4708 96.6702 73.7253 96.879 73.8367 97.0813C73.9403 97.2268 73.9903 97.4819 74.2237 97.4148C74.845 97.2657 74.1387 96.1234 73.7179 96.4588Z" fill="#212121"/><path d="M73.0486 97.0399C73.2075 96.1353 71.9389 96.0437 72.558 97.0862C72.5582 97.0854 72.5586 97.0847 72.5591 97.0839C72.6395 97.3045 72.9699 97.2233 73.0486 97.0399Z" fill="#212121"/><path d="M71.3647 96.6692C71.648 96.6089 71.7605 96.2882 71.5549 96.0744C71.3514 95.848 70.9283 96.197 71.1078 96.4415C71.0829 96.5929 71.2342 96.7102 71.3742 96.669L71.3647 96.6692Z" fill="#212121"/><path d="M79.3028 99.4377C79.443 99.0392 78.8535 98.9977 78.7528 99.3326C78.6126 99.7309 79.2021 99.7726 79.3028 99.4377Z" fill="#212121"/><path d="M73.3418 125.91C73.5584 125.624 73.779 125.338 74.0011 125.056C74.2295 124.761 74.4641 124.468 74.7003 124.178C75.6938 123.949 75.231 124.69 74.5802 125.503C74.3534 125.786 74.1041 126.079 73.8852 126.34C73.5897 126.697 73.3518 126.998 73.3072 127.151C73.2713 127.218 73.2331 127.287 73.1932 127.353C73.1932 127.353 73.1911 127.353 73.1915 127.35C73.0043 127.22 72.8172 127.087 72.6297 126.959C72.6143 126.948 72.6006 126.94 72.5852 126.929C72.8354 126.588 73.0879 126.247 73.3418 125.91ZM73.3418 125.91C73.5584 125.624 73.779 125.338 74.0011 125.056C74.2295 124.761 74.4641 124.468 74.7003 124.178C75.6938 123.949 75.231 124.69 74.5802 125.503C74.3534 125.786 74.1041 126.079 73.8852 126.34C73.5897 126.697 73.3518 126.998 73.3072 127.151C73.2713 127.218 73.2331 127.287 73.1932 127.353C73.1932 127.353 73.1911 127.353 73.1915 127.35C73.0045 127.218 72.8172 127.087 72.6297 126.959C72.6143 126.948 72.6006 126.94 72.5852 126.929C72.8354 126.588 73.0879 126.247 73.3418 125.91ZM0.268242 137.434C2.17664 136.328 4.3787 135.775 6.55521 135.488C6.4752 135.101 6.0798 134.752 6.16361 134.356C6.33504 134 6.81318 133.973 7.11844 133.763C7.44629 133.572 7.97407 133.373 8.12522 133.868C12.6205 142.141 17.9407 150.073 21.0832 159.014C24.2354 152.334 27.2213 145.582 29.7879 138.651C31.314 134.508 32.6244 130.213 35.1178 126.519C34.4325 126.208 36.3217 123.99 36.4777 123.37C32.1623 119.816 20.9056 114.898 20.5166 108.984C22.1163 105.593 29.1035 104.758 32.4975 103.612C45.4656 99.3729 48.7509 96.3987 61.9805 103.116C63.047 100.368 64.0223 97.5879 65.0669 94.8309C63.86 93.8928 63.5484 91.3204 65.3837 90.9183C65.7865 89.1522 66.0529 86.6821 68.1144 86.0842C68.3247 83.5758 69.8537 81.7754 72.3346 83.4066C74.0104 80.3316 76.9186 82.087 78.7846 83.9423C80.7303 81.4363 82.9645 84.6506 83.509 86.5895C84.5907 86.7358 85.7368 87.6373 85.8991 88.7478C86.4195 90.0869 85.1343 91.5749 83.7536 90.6701C83.3194 91.4349 82.8727 91.6909 82.4373 91.6465C82.1832 92.5046 82.099 93.4947 81.7787 94.281C81.1395 96.5479 80.3259 98.7565 79.693 101.024C78.9161 103.426 77.6193 107.169 74.4822 105.177C73.8211 106.761 73.4153 108.518 72.6201 110.014C72.5584 110.209 72.5006 110.407 72.4505 110.61C80.1678 118.869 82.5664 122.167 79.3508 133.482C78.2687 140.492 75.667 147.443 76.1806 154.603C76.7197 158.783 78.9214 162.492 80.8775 166.159C81.354 167.323 89.3604 180.327 85.3082 178.75C85.3095 179.936 84.6595 180.223 83.9643 179.192C83.5478 183.183 79.7103 176.569 78.7392 175.639C76.5156 173.171 74.4995 170.546 72.7285 167.727C70.2761 163.899 67.5309 159.945 66.8645 155.352C66.442 153.325 66.6531 151.262 66.9633 149.235C67.5765 143.708 68.6688 138.248 69.4349 132.74C66.8685 136.085 64.2792 139.537 60.9545 142.167C58.6572 146.859 58.6676 152.274 57.509 157.356C56.7142 163.121 55.4822 168.771 54.144 174.433C53.3981 177.361 53.2432 180.798 50.978 183.045C45.945 186.223 39.7832 187.051 34.1636 188.864C29.1747 190.488 24.0798 191.839 19.0492 193.302C17.985 194.826 17.7479 196.906 16.503 198.271C14.1817 198.906 16.1872 191.72 16.5898 190.644C15.2341 191.444 15.6058 189.897 15.4219 189.041C15.1948 188.302 16.0533 188.104 16.5851 187.948C20.3713 185.26 24.5831 183.213 28.5173 180.745C32.0783 178.824 35.5501 176.547 39.4579 175.391C40.3074 174.93 41.2173 174.59 42.1187 174.249C43.4073 169.476 43.1709 164.414 43.6724 159.511C43.7571 155.525 43.1683 151.529 43.3889 147.534C39.9679 152.892 36.2846 158.023 32.1933 162.902C29.2444 166.053 26.626 171.566 21.8759 171.928C13.7833 170.13 10.3209 156.759 7.80392 149.87C6.60842 146.144 4.65779 142.568 4.2417 138.645C3.07449 138.415 1.89314 138.264 0.701225 138.295C0.0714951 138.337 -0.269447 137.883 0.268242 137.434ZM18.5254 187.726C17.7872 188.2 17.1271 188.85 16.2271 188.997C16.2185 189.364 16.2739 189.728 16.3189 190.093C16.7654 189.839 17.7937 189.311 17.4382 190.3C16.7475 192.57 15.8131 195.122 16.3151 197.511C16.9844 196 17.5444 194.422 18.4557 193.033C18.4707 192.639 18.9348 192.549 19.2273 192.408C19.2402 192.38 19.2546 192.355 19.2736 192.33C19.1404 190.775 18.6367 189.285 18.5254 187.726ZM80.492 96.357C80.4597 96.2881 80.4236 96.2168 80.3848 96.1492C80.404 96.2755 80.3441 96.4176 80.2541 96.5319C80.3375 96.489 80.4545 96.4492 80.492 96.357ZM72.9775 107.437C73.3393 106.489 73.5544 105.48 74.0311 104.564C74.1318 104.337 74.5124 104.207 74.6724 104.446C77.9739 106.902 78.6934 101.702 79.4884 99.5336C79.3799 99.4043 79.4654 99.1936 79.607 99.1193C79.7886 98.4439 80.0027 97.7801 80.2336 97.1165C79.2304 97.4376 77.6976 96.4673 77.9395 95.3795C78.7202 94.4157 80.1255 94.4684 80.743 95.59C80.7675 95.5128 80.7897 95.4374 80.8144 95.3601C80.7785 95.3142 80.7646 95.2526 80.7884 95.1795C80.3928 94.7195 79.8112 94.2334 79.1578 94.3881C78.264 93.989 79.9235 93.3113 81.0413 94.5833C81.1068 94.3505 81.1722 94.1155 81.2358 93.8801C80.8197 93.302 78.9991 93.3399 79.1498 92.6153C79.6898 91.956 80.9936 92.3402 81.4946 92.9077C81.6208 92.4136 81.7468 91.9216 81.867 91.4267C81.112 90.9421 80.4103 89.7844 79.8682 89.0956C78.1513 90.2351 76.4301 89.085 75.1422 87.8789C74.003 88.8991 72.3011 88.5206 70.9468 88.2139C70.5837 89.3109 69.9462 89.896 68.7724 90.0743C68.5389 90.7545 67.7612 94.0183 66.9046 93.7397C66.6109 93.1844 66.8034 92.3957 66.3088 91.8995C65.8321 91.4103 64.9121 91.3669 64.7616 92.1597C64.6805 92.9332 64.9392 93.8303 65.574 94.318C66.3561 94.5107 63.6905 100.013 63.5131 100.982C66.9204 102.713 70.071 104.969 72.9775 107.437ZM79.8963 95.5279C79.4736 95.0915 78.8802 95.1614 78.4586 95.5599C78.6054 95.9867 78.9338 96.3109 79.3408 96.4852C79.1857 96.1149 79.485 95.5086 79.8963 95.5279ZM83.2879 179.876C83.571 178.997 83.164 178.092 83.1089 177.26C83.76 176.432 84.1763 178.792 84.7127 179.099C85.0285 178.187 83.378 176.247 84.1963 176.089C84.8653 176.141 84.9787 178.009 85.8731 178.361C85.3462 175.279 83.4446 172.605 82.099 169.825C80.5455 170.887 79.2433 172.304 77.7339 173.386C79.7675 175.363 81.05 178.177 83.2879 179.876ZM36.0576 126.107C40.6612 129.592 45.6655 132.518 50.5742 135.555C54.0722 137.378 57.5284 139.18 60.755 141.456C64.8378 138.108 67.7762 133.733 70.7875 129.442C70.9561 129.204 71.1248 128.965 71.2933 128.727C71.5272 128.396 71.7606 128.067 71.9985 127.739C72.1913 127.468 72.3883 127.197 72.585 126.929C72.8354 126.587 73.0879 126.247 73.3418 125.91C73.5584 125.623 73.779 125.338 74.0011 125.056C74.2295 124.76 74.4641 124.468 74.7003 124.178C75.6938 123.949 75.231 124.69 74.5802 125.503C74.3534 125.786 74.1041 126.079 73.8852 126.339C73.5897 126.697 73.3518 126.998 73.3072 127.151C73.2713 127.218 73.2331 127.286 73.1932 127.353C73.0281 127.639 72.8407 127.917 72.6431 128.192C71.6165 129.623 70.3099 130.956 70.1773 132.714C69.3057 138.634 68.1543 144.514 67.464 150.463C66.3263 159.076 72.6855 166.353 77.3628 172.949C78.7156 171.62 80.2577 170.407 81.8199 169.302C78.8102 163.703 74.8996 157.976 75.417 151.337C75.9431 145.527 77.507 139.856 78.5338 134.124C78.5787 133.899 78.6237 133.673 78.6729 133.447C78.7257 133.197 78.7806 132.948 78.8382 132.697L78.8384 132.695C78.9628 132.143 79.0937 131.59 79.2231 131.034C79.2894 130.753 79.3531 130.473 79.4154 130.19C79.6254 129.258 79.8163 128.324 79.9482 127.386L79.9484 127.384C80.0038 127.004 80.0472 126.621 80.0795 126.239L80.0797 126.237C80.1986 124.822 80.1473 123.402 79.7878 121.974C78.5982 118.941 76.5764 116.241 74.428 113.812C73.5892 112.883 72.8174 111.891 71.9205 111.021C71.7064 110.237 72.3224 109.429 72.4687 108.649C72.4035 108.503 72.513 108.33 72.6606 108.243C72.6718 108.211 72.6832 108.178 72.6965 108.146C69.8009 105.66 66.6544 103.422 63.2649 101.643C62.8393 102.337 62.9053 103.616 62.0381 103.885L62.0379 103.887C56.2143 101.125 51.7619 99.2174 46.3259 99.9483C45.9531 99.9984 45.5764 100.061 45.1933 100.137C44.1304 100.345 43.0267 100.653 41.8649 101.076L41.8628 101.075C41.6416 101.155 41.4193 101.24 41.1921 101.33C40.9901 101.408 40.7877 101.49 40.5825 101.576C40.2394 101.684 39.8976 101.796 39.558 101.911C39.1436 102.053 38.7313 102.195 38.3184 102.341C35.9629 103.173 33.6261 104.064 31.1811 104.642C28.584 105.348 25.9623 106.121 23.4541 107.114C19.4699 108.603 21.5377 111.225 23.717 113.311C31.54 119.454 39.9034 125.611 49.2499 129.216C50.0648 127.704 50.8746 126.182 51.943 124.828C51.8704 124.757 51.8659 124.66 51.9025 124.575C45.8038 119.716 38.6097 116.447 32.4129 111.699C32.415 111.699 32.4152 111.697 32.4152 111.697C30.7732 110.236 44.0163 111.059 45.0495 110.808C45.8578 110.519 46.7662 110.991 47.601 111.019C47.9438 111.109 48.3818 110.952 48.6603 111.2C48.9351 112.511 46.8973 111.715 45.7569 111.492L45.7548 111.492C45.6968 111.481 45.6448 111.471 45.5927 111.463C45.4381 111.44 45.309 111.433 45.2106 111.448C44.051 113.249 42.6057 114.961 41.6355 116.906C44.0339 118.448 46.5192 119.854 48.8969 121.433C51.0827 122.687 52.7667 124.758 55.1413 125.67C57.6524 125.937 60.2832 126.16 62.5051 127.486C63.5524 128.449 64.6651 129.907 64.629 131.369C64.2805 132.047 63.6826 131.892 63.1933 131.473C63.5971 132.399 62.7722 133.739 61.914 132.628C61.5587 135.347 59.326 131.603 58.6437 130.88C50.8378 132.311 43.4204 127.63 37.0233 123.725C36.6266 124.453 36.3046 125.082 35.8951 125.782C36.0285 125.822 36.1005 125.98 36.0576 126.107ZM62.6465 132.462C62.6548 132.451 62.6624 132.441 62.6685 132.429L62.671 132.44C63.0481 131.618 61.3233 129.969 62.0863 129.656C62.7225 129.712 63.2241 131.063 64.0673 131.261C62.5055 125.07 56.209 128.006 52.5216 125.054C51.5524 126.445 50.6687 127.891 49.9003 129.406C50.0561 129.449 50.2098 129.491 50.3635 129.534C60.6581 132.464 56.7763 127.462 61.314 132.968C61.4078 131.986 60.2306 131.231 60.2378 130.327C60.7738 129.469 61.9807 132.193 62.6465 132.462ZM41.0554 116.555C41.9781 114.712 43.2872 113.136 44.4861 111.471C40.8844 111.623 37.2776 111.402 33.6757 111.724C36.0739 113.409 38.5502 115.014 41.0554 116.555ZM4.29112 137.714C4.7011 137.714 5.08825 137.92 5.05701 138.379C6.28459 137.832 7.57593 137.442 8.74947 136.772C8.28545 135.975 7.84931 135.164 7.48262 134.317C7.31458 134.396 7.14864 134.477 6.97722 134.551C7.14822 135.028 7.89912 136.213 6.90924 136.179C5.213 136.382 3.55289 136.783 1.95354 137.389C2.7397 137.441 3.5113 137.605 4.29112 137.714Z" fill="#212121"/><path d="M206.47 21.895C208.22 22.8761 209.442 24.4845 210.74 25.9645C215.11 31.1813 222.144 32.8633 228.619 31.1644C233.348 30.3307 238.64 30.8949 242.582 33.8044C244.032 34.8886 245.351 36.1496 246.956 37.0149C251.868 40.3854 259.704 36.7033 263.232 42.3033C264.269 43.4001 265.075 45.038 266.54 45.5622C266.492 45.7032 266.472 45.8169 266.477 45.9053C266.517 46.9495 269.84 44.5496 269.738 44.1832C270.329 43.7832 270.657 43.6127 270.703 43.3285C270.739 43.1138 270.612 42.8317 270.317 42.3327C270.226 41.6001 271.081 41.0233 271.761 41.1875C276.969 43.3264 276.424 38.9664 281.001 41.678C282.382 42.4948 283.716 43.4948 284.683 44.7811C284.771 44.8948 284.854 45.0106 284.932 45.1306C285.041 45.2906 285.145 45.4569 285.24 45.6253C285.24 45.6422 285.24 45.6611 285.244 45.6759C285.28 45.8674 285.54 45.9685 285.709 45.8611C285.761 45.798 285.812 45.7348 285.861 45.6696C286.958 44.2106 287.115 42.0696 286.711 40.3264C285.388 34.2128 278.871 32.4865 273.975 29.9728C265.675 26.236 264.904 14.4846 255.845 11.7667C251.9 10.6362 247.798 11.3183 243.774 11.2088C237.371 10.4046 234.331 3.40676 228.507 1.19415C223.844 -1.02267 219.024 0.120477 214.646 2.39204C207.392 4.99201 198.849 -1.94687 195.902 9.59197C194.472 17.4614 200.552 19.3645 206.47 21.895Z" fill="#4CAF50"/><path d="M238.649 57.901C238.826 58.6504 239.631 59.5325 239.882 60.2188C241.835 63.5114 244.262 66.463 246.732 69.3724C247.997 70.8124 248.77 71.8798 249.344 72.6208C249.494 72.8124 249.629 72.9829 249.758 73.1324C251.041 74.6377 251.484 73.9935 256.312 72.0208C257.159 72.745 257.999 73.0882 258.791 73.1345C259.076 73.1514 259.354 73.1303 259.625 73.0735C261.455 72.6945 262.895 70.7388 263.311 68.4819C263.539 67.6567 265.413 67.1851 265.23 66.3472C264.74 65.802 264.258 65.2462 263.777 64.682C263.587 64.4588 263.397 64.2335 263.205 64.0083C261.71 62.2357 260.228 60.4146 258.664 58.7094C256.868 56.6294 255.077 54.5473 253.389 52.3831C253.192 52.1305 252.996 51.8758 252.802 51.621C252.453 51.1642 252.111 50.7031 251.774 50.2379C251.731 50.1726 251.687 50.1074 251.636 50.04C251.375 49.68 251.018 49.3537 250.56 49.6484C250.42 49.7137 250.281 49.7789 250.142 49.8442C246.276 51.7031 242.829 54.3536 239.297 56.7431C238.896 56.9262 238.698 57.1599 238.636 57.4231C238.6 57.5726 238.609 57.7347 238.649 57.901Z" fill="#212121"/><path d="M263.615 64.8149C263.672 64.7707 263.729 64.7265 263.786 64.6822C265.96 62.9917 267.892 61.0507 269.939 59.2149C269.992 59.1791 270.051 59.1307 270.112 59.076C270.324 58.8865 270.547 58.6086 270.539 58.3876C270.535 58.2949 270.488 58.2128 270.381 58.1539C270.336 58.1265 270.281 58.1055 270.214 58.0886C270.024 58.1918 269.84 58.3034 269.659 58.4234C267.97 59.5307 266.6 61.2591 265.014 62.5454C264.446 63.0696 263.794 63.5012 263.213 64.0086C263.142 64.0738 263.072 64.137 263.002 64.2023C262.637 64.6444 263.167 65.0991 263.615 64.8149Z" fill="#212121"/><path d="M252.402 53.0154C255.69 51.0377 258.411 48.1235 261.382 45.7203C261.456 43.3744 255.59 49.7655 254.774 50.1632C254.4 50.7083 250.477 52.7158 252.402 53.0154Z" fill="#212121"/><path d="M173.624 114.166C173.576 113.694 174.125 113.604 174.456 113.46C176.744 112.197 179.176 111.197 181.471 109.951C180.39 106.414 179.17 102.913 178.212 99.3406C178.606 97.8669 181.712 98.229 182.991 97.9153C191.452 96.5511 200.068 95.3448 208.195 92.5428C216.992 88.2649 224.191 81.086 230.484 73.7345C224.343 75.0334 218.497 77.3681 212.521 79.2544C207.397 81.2313 201.761 82.7765 196.39 80.8018C188.657 76.2566 182.265 63.0988 179.157 54.8336C178.739 53.562 180.737 53.6968 181.484 53.2252C183.352 52.421 185.254 51.6778 187.211 51.1136C185.533 47.5558 185.385 47.3579 181.363 47.4337C180.623 47.5326 180.639 46.6337 181.304 46.5516C182.071 46.0674 182.805 45.4779 183.709 45.2821C185.085 44.9747 186.696 44.9811 187.874 45.8484C187.693 45.2 186.396 43.9095 187.587 43.6548C191.07 42.0506 190.363 43.5874 191.754 46.3032C194.883 53.9831 196.7 62.1241 198.193 70.2587C210.237 65.5325 222.132 59.1978 235.202 57.9936C235.373 57.9304 235.601 58.061 235.865 58.322C235.996 58.4504 236.135 58.6125 236.281 58.7999C237.404 60.2294 238.884 63.0798 239.509 63.7241C241.863 67.2251 243.866 70.7935 245.804 74.5492C245.823 74.5829 245.84 74.6166 245.857 74.6503C246.116 74.5808 246.298 74.7345 246.351 74.924C246.395 75.1029 246.325 75.3155 246.091 75.3997C246.074 75.4187 246.059 75.4376 246.042 75.4566C237.624 86.7175 226.536 95.8711 214.239 102.72C204.33 108.273 193.129 110.776 182.645 114.991C181.148 115.606 179.626 116.433 178.167 117.168C177.585 117.441 177.032 117.646 176.763 118.279C176.103 119.008 175.535 120.694 174.731 121.067C174.044 121.073 173.971 119.951 173.852 119.441C173.555 117.93 174.405 116.604 175.448 115.589C173.711 116.355 174.287 115.225 173.624 114.166ZM184.049 113.524C193.002 110.073 202.404 107.755 211.03 103.492C224.294 96.7111 236.108 87.1723 245.109 75.2861C242.35 69.4566 238.708 64.0904 234.953 58.8483C221.997 60.2567 210.148 66.4588 198.195 71.2419C197.855 71.7387 197.207 71.3914 197.217 70.8503C195.852 64.0293 194.448 57.1346 192.104 50.5621C188.133 51.9031 184.154 53.2736 180.179 54.6062C183.343 62.762 189.303 75.4271 196.932 79.9934C205.55 82.7744 213.739 77.1134 221.936 75.1597C224.902 74.1071 227.952 73.3324 231.026 72.665C232.219 72.2966 232.082 73.1092 231.467 73.7577C231.569 73.9534 231.472 74.1955 231.328 74.3492C230.106 75.6124 228.983 76.9618 227.8 78.2608C222.782 83.4586 217.353 88.4586 211.091 92.1322C206.198 94.7322 200.627 95.7238 195.227 96.7259C190.029 97.9511 184.711 98.5427 179.476 99.4711C180.033 101.469 180.627 103.456 181.243 105.437C182.258 108.103 182.765 110.964 184.049 113.524Z" fill="#212121"/><path d="M268.671 57.2381C268.726 57.3307 268.857 57.3918 269.087 57.4065C269.211 57.3307 269.336 57.2507 269.456 57.1665C270.873 56.1981 272.002 54.735 273.414 53.7223C274.941 55.2908 276.617 55.3055 278.185 53.796C281.046 51.4782 283.596 48.7434 285.914 45.895C285.904 45.8024 285.885 45.7287 285.861 45.6698C285.749 45.3877 285.505 45.4719 285.245 45.6761C284.932 45.9245 284.597 46.3498 284.447 46.5119C284.242 46.735 284.035 46.9603 283.83 47.1834C283.678 47.3477 283.526 47.5119 283.377 47.6761C283.077 48.0003 282.775 48.3224 282.473 48.6445C282.319 48.8087 282.163 48.9729 282.004 49.1371C281.348 49.8297 280.681 50.5118 279.995 51.175C279.9 51.2697 279.805 51.3624 279.708 51.455C279.317 51.8276 278.92 52.196 278.517 52.5581C276.919 53.9076 275.952 55.0865 274.164 53.1918C273.429 52.0676 272.342 53.5518 271.652 54.0381C271.32 54.5455 268.312 56.6234 268.671 57.2381Z" fill="#212121"/><path d="M264.098 48.6654C264.24 48.6633 264.424 48.638 264.658 48.5875C266.524 47.2023 268.238 45.617 270.191 44.3497C271.095 43.9476 271.025 43.4086 270.702 43.3286C270.567 43.2949 270.389 43.3413 270.221 43.5097C269.955 43.5539 268.124 44.7034 266.476 45.9054C265.393 46.697 264.388 47.5075 263.961 48.0444C263.655 48.4275 263.643 48.6696 264.098 48.6654Z" fill="#212121"/><path d="M278.856 50.5122C279.857 50.208 279.501 47.6461 280.67 46.7868C280.932 46.4323 280.373 46.1203 280.147 46.4621C279.161 47.3322 279.021 48.6676 278.729 49.872C278.455 49.7453 278.326 49.4674 278.189 49.2179C278.1 49.0863 277.936 49.0526 277.79 49.1038C277.051 49.5166 278.295 50.6091 278.856 50.5122Z" fill="#212121"/><path d="M281.322 49.4031C281.481 49.3869 281.666 49.3574 281.773 49.2238C281.811 49.2137 281.845 49.1966 281.878 49.177C281.875 49.1789 281.871 49.1804 281.867 49.1819C282.244 49.0187 282.138 48.4505 282.066 48.1514C281.798 47.1255 280.918 46.9659 280.027 47.3356C279.129 48.0829 280.299 49.6953 281.341 49.4L281.322 49.4031ZM281.097 48.8398C280.655 48.768 280.298 48.1869 280.362 47.7646C281.11 47.452 281.547 48.1166 281.525 48.7977C281.38 48.7987 281.244 48.8661 281.097 48.8398Z" fill="#212121"/><path d="M278.422 46.0993C278.456 46.0892 278.489 46.0734 278.519 46.0535C279.256 46.0303 279.147 44.5406 278.857 44.1029C278.474 43.3621 277.631 43.1979 276.86 43.179C275.331 43.9415 276.981 46.4452 278.422 46.0993ZM278.413 45.5004C277.527 45.6246 276.658 44.576 276.992 43.7453C277.945 43.7196 278.674 44.5621 278.413 45.5004Z" fill="#212121"/><path d="M281.141 49.0485C281.629 49.0148 281.861 48.25 281.269 48.1654C280.848 48.0494 280.292 48.6719 280.803 48.9264C280.888 49.0249 281.017 49.0561 281.141 49.0485Z" fill="#212121"/><path d="M278.441 44.9582C278.59 44.1633 277.29 44.2671 277.222 44.9485C277.198 45.6641 278.298 45.5504 278.441 44.9582Z" fill="#212121"/><path d="M281.034 48.7462C281.353 48.6897 281.772 48.2493 281.529 47.9363C281.022 47.1293 279.734 48.8866 281.034 48.7462Z" fill="#212121"/><path d="M283.897 47.8654C284.336 47.5244 283.2 46.2863 282.783 46.2019C282.419 46.0749 282.01 45.9844 281.626 46.0355C281.191 46.2077 281.488 46.6465 281.87 46.5652C283.36 46.617 283.214 48.238 283.897 47.8654Z" fill="#212121"/><path d="M280.54 44.5725C280.662 43.4563 280.014 42.2336 278.965 41.7736C278.641 41.6208 277.881 41.3267 277.685 41.7677C277.588 42.1206 278.03 42.0928 278.256 42.1309C280.305 42.5395 279.612 45.4365 280.54 44.5725Z" fill="#212121"/><path d="M278.225 43.6927C278.387 43.5853 278.36 43.3687 278.378 43.2C278.39 42.9661 278.471 42.6053 278.118 42.6312C277.682 42.6051 277.627 44.072 278.225 43.6927Z" fill="#212121"/><path d="M277.558 43.5015C277.695 43.3895 277.664 43.2004 277.669 43.0425C277.673 42.8152 277.703 42.4876 277.378 42.5156C276.867 42.5413 276.979 43.9337 277.558 43.5015Z" fill="#212121"/><path d="M277.023 43.3869C276.976 43.1096 277.113 42.4959 276.681 42.5151C276.018 42.5917 276.514 44.1717 277.023 43.3869Z" fill="#212121"/><path d="M282.388 49.1519C283.111 48.8999 282.443 48.4692 281.969 48.6163C281.339 48.8949 281.967 49.2553 282.388 49.1519Z" fill="#212121"/><path d="M282.184 48.4781C283.031 48.4366 282.986 47.6655 282.136 47.9796C281.537 47.7789 281.593 48.6587 282.184 48.4781Z" fill="#212121"/><path d="M281.846 47.8921C283.067 47.5024 282.276 46.8829 281.473 47.5346C281.473 47.5342 281.474 47.534 281.473 47.5336C281.203 47.8062 281.581 48.0195 281.846 47.8921Z" fill="#212121"/><path d="M277.086 51.951C277.413 51.3412 275.588 51.6489 275.661 50.1391C275.633 49.4256 274.684 49.7744 275.14 50.8563C275.379 51.5245 276.406 52.394 277.086 51.951Z" fill="#212121"/><path d="M279.905 51.3285C279.984 51.1866 280.033 51.1102 280.091 50.9826C280.084 50.9969 280.079 51.0112 280.07 51.0238C280.206 50.806 279.919 50.6367 279.736 50.7487C279.231 50.9331 279.364 51.8059 279.905 51.3285Z" fill="#212121"/><path d="M279.423 50.9386C279.57 50.7628 279.684 50.3306 279.344 50.3171C279.068 50.2975 279.048 50.5847 278.942 50.7636C278.805 51.0761 279.271 51.1695 279.423 50.9386Z" fill="#212121"/><path d="M276.191 47.1308C276.266 47.0606 276.33 46.9867 276.392 46.905C276.64 46.5945 276.291 46.3304 276.004 46.5497C275.67 46.8433 275.619 47.4134 276.191 47.1308Z" fill="#212121"/><path d="M275.544 46.6008C275.678 46.4214 276.03 46.0328 275.673 45.902C275.11 45.7484 274.776 47.0846 275.544 46.6008Z" fill="#212121"/><path d="M275.15 45.7888C275.26 45.6193 275.472 45.3406 275.238 45.1835C274.908 45.0065 274.746 45.3587 274.623 45.5964C274.472 45.9397 274.991 46.0452 275.15 45.7888Z" fill="#212121"/><path d="M241.636 110.903C241.53 111.599 242.026 112.719 242.801 111.966C242.736 112.532 243.189 113.555 243.852 113.016C243.926 113.332 244.262 113.482 244.566 113.442C246.227 113.008 245.353 111.056 245.514 109.856C245.885 107.077 246.571 104.328 247.741 101.77C250.031 96.8543 252.459 91.9238 255.689 87.547C260.424 79.2797 276.15 69.823 271.098 59.421C270.982 59.1683 270.781 58.7789 270.534 58.3873C270.481 58.3094 270.431 58.2315 270.376 58.1536C270.099 57.7494 269.778 57.3726 269.455 57.1663C269.238 57.0294 269.02 56.9684 268.814 57.0273C268.733 57.0757 268.683 57.1557 268.67 57.2378C268.657 57.3389 268.7 57.442 268.809 57.4926C269.118 57.7831 269.398 58.0947 269.654 58.4231C269.816 58.6336 269.968 58.8504 270.108 59.0757C270.386 59.522 270.619 59.9978 270.8 60.5031C272.801 65.1199 270.015 69.8525 266.931 73.2335C263.236 77.7997 258.86 81.8123 255.48 86.6334C250.682 93.6754 245.803 101.612 244.821 110.218C244.707 110.947 245.349 112.654 244.488 112.909C244.258 112.37 244.756 111.65 244.443 111.176C243.69 110.936 243.939 112.178 243.531 112.549C243.126 112.008 243.939 110.475 243.263 110.522C242.786 110.65 242.824 111.366 242.387 111.625C242.415 109.119 242.155 106.572 242.227 104.029C242.609 102.012 243.211 100.067 243.888 98.1343C247.329 89.8881 252.022 82.1744 257.901 75.4482C258.448 74.6271 259.016 73.825 259.628 73.0735C259.641 73.0566 259.654 73.0419 259.666 73.0251C259.489 72.5324 259.147 72.7261 258.794 73.1345C258.336 73.6608 257.857 74.5429 257.68 74.7471C251.575 81.8502 246.472 89.8207 243.004 98.5448C242.396 100.362 241.802 102.206 241.486 104.094C241.327 106.364 241.887 108.677 241.636 110.903Z" fill="#212121"/><path d="M245.84 75.1682C246.014 75.0925 246.185 75.0104 246.351 74.924C247.47 74.3409 248.479 73.5388 249.687 73.1704C249.71 73.1598 249.733 73.1472 249.761 73.1325C249.965 73.0251 250.238 72.8567 250.084 72.6146C249.866 72.543 249.617 72.5535 249.347 72.6209C248.243 72.8967 246.803 74.1282 245.805 74.5493C245.729 74.5809 245.655 74.6082 245.585 74.6293C245.142 74.823 245.414 75.3388 245.84 75.1682Z" fill="#212121"/><path d="M235.664 59.0631C235.744 58.9916 235.977 58.901 236.281 58.8C237.024 58.5495 238.202 58.2253 238.651 57.901C238.877 57.7368 238.922 57.5747 238.638 57.4232C238.626 57.4147 238.613 57.4084 238.599 57.4021C238.054 57.5326 237.518 57.7116 236.986 57.9053C236.61 58.04 236.236 58.1832 235.865 58.3221C235.706 58.381 235.55 58.4379 235.394 58.4947C234.923 58.7031 235.213 59.2442 235.664 59.0631Z" fill="#212121"/><path d="M208.689 58.0359C207.802 58.758 208.655 59.238 209.43 59.3348C208.157 60.8106 211.56 60.819 212.381 60.6569C214.507 60.0548 215.873 58.2043 217.602 56.9769C222.065 54.2759 226.85 52.0822 231.51 49.7391C234.552 48.356 238.037 48.7265 241.231 49.2275C244.18 49.6338 247.214 49.4044 250.144 49.8444C250.41 49.8865 250.674 49.9307 250.938 49.9833C251.212 50.1033 251.457 50.1033 251.639 50.0402C252.114 49.8738 252.156 49.2781 251.176 49.2759C248.924 48.7665 246.597 49.0254 244.317 48.7581C241.362 48.6549 238.476 47.9033 235.512 48.1033C230.289 48.5117 225.841 52.0991 221.132 54.1538C219.381 55.0738 217.543 55.8843 216.071 57.2317C214.465 58.8274 212.333 60.8864 209.92 59.7769C210.268 59.4274 211.522 59.4822 211.324 58.8485C210.68 58.5411 209.751 59.0022 209.071 58.5495C209.438 58.078 210.466 58.2001 210.599 57.6317C210.424 56.9832 208.78 57.9559 208.241 57.0738C208.947 56.7053 209.768 56.8401 210.498 56.6885C212.189 55.8338 213.426 54.358 214.891 53.1959C219.635 49.2991 224.76 45.6107 230.583 43.5328C236.462 41.5665 252.979 40.4297 258.067 43.9097C258.801 44.417 259.515 44.9623 260.207 45.5307C260.442 45.7223 260.676 45.9181 260.906 46.1139C261.252 46.4107 261.592 46.7097 261.93 47.0128C262.519 47.2886 263.589 49.4023 264.098 48.6654C264.142 48.5981 264.185 48.5054 264.221 48.3875H264.223C264.136 48.2717 264.05 48.156 263.961 48.0444C259.616 42.4339 254.085 40.775 247.117 41.1223C237.473 40.5308 227.868 42.3581 220.089 48.3581C216.814 50.5601 213.861 53.1643 210.897 55.7475C210.127 56.3559 209.082 55.958 208.225 56.4148C206.953 56.8127 207.69 57.8969 208.689 58.0359Z" fill="#212121"/><path d="M297.238 30.0381C297.284 30.5476 297.848 29.935 298.521 30.836C299.532 31.9855 300.292 33.3307 300.991 34.6844C301.063 34.8528 301.16 35.1202 301.392 35.0149C302.013 34.417 300.432 32.6191 300.136 31.9749C299.676 31.3055 297.966 28.6465 297.238 30.0381Z" fill="#212121"/><path d="M302.668 30.6362C303.396 31.8573 304.129 33.0741 304.815 34.3162C304.948 34.5204 304.963 35.0193 305.309 34.8951C306.008 33.9899 303.734 31.5015 303.308 30.5394C303.002 30.1352 302.809 29.5836 302.421 29.2678C301.648 29.3983 302.512 30.2657 302.668 30.6362Z" fill="#212121"/><path d="M285.092 45.0516C285.981 42.5423 284.955 39.6182 283.409 37.5634C279.522 33.0231 272.464 33.2995 268.808 28.4119C266.693 26.1229 265.674 23.0905 263.846 20.6049C259.855 15.2411 253.237 12.5759 246.64 13.3576C232.124 13.1081 232.534 -1.49032 215.126 4.33047C212.41 4.78836 209.512 5.3812 206.803 4.63658C206.236 4.58142 205.487 3.68774 205.081 4.26563C205.158 5.39594 208.55 5.66372 209.518 5.62436C213.399 5.64394 217.066 4.38331 220.829 3.66522C227.696 2.57217 232.572 8.02791 237.605 11.6544C243.566 15.646 251.168 12.2618 257.242 15.7849C264.81 19.4619 264.984 26.6372 271.012 31.3239C276.512 35.0083 285.516 35.3715 284.774 44.2371C284.689 44.5449 284.519 45.4244 285.092 45.0516Z" fill="white"/><path d="M283.727 41.6591C282.667 35.0834 273.713 35.5166 269.256 32.1945C265.775 29.9485 264.205 25.8733 261.843 22.6359C255.41 13.3396 246.28 19.9843 237.914 15.7753C230.292 11.6482 225.715 4.67669 215.775 6.76573C211.657 7.53246 209.022 8.59181 204.84 6.87415C204.423 6.80804 203.913 6.20384 203.59 6.62762C203.522 6.76088 203.533 6.96278 203.671 7.04972C205.865 8.16571 208.386 8.64971 210.837 8.35603C218.085 6.58025 223.922 6.17205 230.077 11.1312C232.697 13.1474 235.213 15.404 238.317 16.6475C243.65 19.3892 249.659 16.8107 255.168 18.425C261.766 20.2195 263.004 27.271 267.445 31.571C271.888 36.097 280.784 34.8562 283.262 41.3543C283.136 41.6412 283.526 41.9709 283.727 41.6591Z" fill="white"/><path d="M280.618 40.9374C280.885 40.7814 280.794 40.4458 280.612 40.2576C278.745 37.536 275.544 36.8324 272.47 36.448C269.31 35.5861 266.383 33.7402 264.093 31.4236C261.823 29.0125 261.154 25.5131 258.367 23.4955C258.077 23.2769 257.797 23.7776 258.035 23.9902C260.475 25.8129 261.301 28.7337 263.033 31.0804C265.309 33.8192 268.483 35.7966 271.847 36.9212C274.975 37.4509 278.389 37.8758 280.296 40.7549C280.314 40.9012 280.483 41.014 280.618 40.9374Z" fill="white"/><path d="M259.613 28.8235C258.498 22.8055 251.539 20.507 246.016 20.7781C240.681 20.687 234.89 20.0204 230.864 16.1739C230.49 15.8798 228.991 14.3822 229.306 15.6542C229.798 16.0838 230.296 16.5064 230.796 16.9266C238.668 24.5667 250.835 17.9737 257.354 25.4063C258.103 26.3955 258.796 27.5391 259.183 28.6993C259.179 28.9456 259.474 29.0456 259.613 28.8235Z" fill="white"/><path d="M228.679 13.4667C229.639 12.1505 224.64 9.89468 223.578 9.55216C217.078 7.10797 213.011 11.0673 206.996 10.4669C206.377 10.3776 205.765 10.2452 205.153 10.1155C204.787 10.0406 204.636 10.6957 204.999 10.7871C209.839 12.3723 214.32 9.29195 219.123 9.42732C222.622 9.47469 226.411 10.9267 228.679 13.4667Z" fill="white"/><path d="M275.061 40.7132C276.3 39.041 269.296 38.7688 268.31 38.4001C265.075 37.7069 262.608 35.8166 260.491 33.4036C260.235 33.4027 260.114 33.7526 260.263 33.94C264.986 40.0243 269.023 38.245 274.797 40.4913C274.798 40.621 274.924 40.7639 275.061 40.7132Z" fill="white"/><path d="M258.333 32.2031C258.404 31.432 257.023 30.7835 256.647 30.0751C254.356 26.3002 250.395 24.2621 246.15 23.4463C242.266 22.6322 238.085 23.3217 234.359 21.7904C233.863 21.7181 233.093 20.9388 232.728 21.4502C232.678 21.5912 232.715 21.7615 232.855 21.8327C233.434 22.1188 234.032 22.364 234.638 22.5826C241.121 24.4567 249.038 22.6501 254.255 27.9916C255.246 28.8709 257.166 32.2995 258.333 32.2031Z" fill="white"/><path d="M230.322 20.0982C231.389 19.5509 226.312 16.4229 225.752 15.9191C222.401 13.4345 218.578 12.553 214.453 12.9086C211.841 13.1713 209.207 14.0962 206.622 13.1324C206.328 13.0865 205.869 12.816 205.714 13.2023C205.664 13.34 205.696 13.5372 205.846 13.5998C207.993 14.3604 209.8 14.3627 211.997 13.881C218.832 12.1223 225.234 15.4505 230.11 20.0342C230.083 20.0039 230.07 19.9856 230.058 19.9433C230.097 20.0553 230.205 20.1361 230.322 20.0982Z" fill="white"/><path d="M269.068 41.0339C269.42 40.4629 268.765 40.3389 268.319 40.4501C257.689 39.6827 253.106 27.4028 242.957 25.3441C242.636 25.2957 242.509 25.8361 242.823 25.9264C243.018 25.9831 243.211 26.0471 243.366 26.0972C253.248 28.5778 257.997 40.973 268.762 41.004C268.832 41.1053 268.979 41.1208 269.068 41.0339Z" fill="white"/><path d="M255.996 37.0987C256.272 37.0587 256.3 36.5635 256.007 36.5614C254.084 36.149 252.388 34.913 250.765 33.8425C240.183 25.9211 238.331 28.1625 226.503 28.0274C226.201 28.0177 226.099 28.5495 226.403 28.6251C236.17 29.1657 239.477 26.2872 248.667 33.1364C250.962 34.6202 253.237 36.6612 255.996 37.0987Z" fill="white"/><path d="M239.61 25.8536C229.116 24.1456 225.902 26.5528 216.218 19.4819C215.903 19.3802 215.45 18.8467 215.193 19.2415C215.128 19.3693 215.144 19.5451 215.267 19.6314C221.538 24.0555 225.838 25.9138 233.635 25.7989C235.563 25.8484 237.496 26.062 239.4 26.3425C239.643 26.3909 239.793 26.0096 239.61 25.8536Z" fill="white"/><path d="M227.915 22.0103C228.516 21.424 227.242 21.3545 226.929 21.0678C225.212 20.0802 223.515 19.0564 221.78 18.0988C216.354 14.3131 209.68 17.7047 203.836 15.6922C203.842 15.6939 203.847 15.6954 203.853 15.6973C203.176 15.4746 202.514 15.2112 201.846 14.9636C200.48 15.3948 202.974 16.107 203.4 16.256C205.937 17.1924 208.679 17.164 211.337 16.9354C219.372 15.7085 221.492 19.4274 227.915 22.0103Z" fill="white"/><path d="M203.267 13.8184C203.456 13.2683 202.549 13.2912 202.219 13.1032C201.213 12.8218 200.354 12.2171 199.54 11.5833C197.678 11.8529 202.92 14.4607 203.267 13.8184Z" fill="white"/><path d="M202.868 11.2329C203.94 10.7463 200.242 9.61729 199.9 9.06445C198.088 9.2255 202.591 11.4057 202.878 11.231L202.868 11.2329Z" fill="white"/><path d="M201.31 7.95642C201.929 7.55853 200.951 7.19538 200.672 6.94548C200.361 6.81264 199.881 6.16675 199.595 6.58801C199.377 7.06359 200.907 7.88232 201.31 7.95642Z" fill="white"/><path d="M223.5 28.5103C223.499 28.5094 223.497 28.5086 223.496 28.508C223.929 28.3751 223.705 27.8307 223.286 27.8954C220.694 27.3716 218.373 25.7213 216.216 24.2737C214.548 23.0577 210.15 18.9449 208.238 19.6438C208.187 19.7851 208.216 20.0026 208.377 20.063C210.395 20.6603 212.163 21.8506 213.792 23.1497C216.653 25.4015 219.792 27.996 223.5 28.5103Z" fill="white"/><path d="M256.116 70.9344C256.167 70.8049 256.126 70.6215 255.979 70.5771C255.472 70.174 255.637 67.3451 254.806 68.31C254.726 68.806 255.284 71.8895 256.116 70.9344Z" fill="white"/><path d="M254.317 70.1515C254.601 69.8465 254.055 69.6254 253.985 69.3277C253.889 69.128 253.812 68.9185 253.709 68.7225C253.562 68.444 253.082 68.6187 253.132 68.9238C253.211 69.324 253.789 70.5911 254.317 70.1515Z" fill="white"/><path d="M249.926 59.9901C250.18 59.7579 249.842 59.424 249.579 59.5793C246.831 59.1364 247.152 56.5646 246.336 56.5863C245.784 56.7684 246.258 57.4693 246.376 57.821C246.921 59.076 248.523 60.3953 249.926 59.9901Z" fill="white"/><path d="M250.52 61.7592C251.047 61.2634 249.085 61.2124 248.74 60.7442C248.466 60.5705 248.012 60.9651 248.298 61.2192C248.719 61.587 250.029 62.1307 250.52 61.7592Z" fill="white"/><path d="M196.553 189.11C198.375 188.826 199.534 186.465 198.28 184.985C197.451 184.233 196.53 183.574 195.705 182.813C194.728 181.961 194.991 180.596 194.992 179.447C195.098 178.891 194.724 178.34 194.141 178.695C193.648 178.99 193.757 179.555 193.753 180.037C193.709 180.251 193.603 180.501 193.724 180.706C192.801 184.294 199.068 185.334 197.217 187.527C196.671 188.067 195.887 187.69 195.229 187.809C193.736 188.729 195.53 189.478 196.553 189.11Z" fill="#212121"/><path d="M198.851 181.722C200.158 181.664 201.387 180.91 202.176 179.901C202.053 176.158 197.064 177.587 195.875 179.998C195.676 181.325 197.785 181.932 198.851 181.722ZM198.325 180.51C197.922 180.475 197.534 180.298 197.218 180.049C198.036 178.923 200.015 178.166 200.929 179.508C200.206 180.219 199.353 180.55 198.325 180.51Z" fill="#212121"/><path d="M187.007 181.851C187.82 181.763 189.068 181.333 189.05 180.355C190.779 178.913 185.275 175.568 182.357 177.966C179.725 179.115 185.007 182.967 187.007 181.851ZM185.847 180.719C184.652 180.675 183.747 179.833 183.086 178.911C184.73 177.774 186.945 178.544 188.187 179.94C187.577 180.585 186.726 180.715 185.847 180.719Z" fill="#212121"/><path d="M199.326 181.32C200.351 181.451 201.391 179.611 200.371 179.069C199.082 177.917 197.468 181.193 199.326 181.32Z" fill="#212121"/><path d="M186.172 181.498C187.675 181.475 187.658 178.525 186.042 178.999C184.914 179.408 184.859 181.386 186.172 181.498Z" fill="#212121"/><path d="M194.85 193.01C194.404 192.556 193.674 193.096 193.669 193.641C193.967 194.804 195.756 195.112 196.818 195.01C197.666 195.035 199.762 193.392 198.942 192.566C197.92 192.074 197.848 194.113 196.462 193.766C195.881 193.691 195.166 193.548 194.85 193.01Z" fill="#212121"/><path d="M181.025 173.882C181.863 175.091 185.715 174.836 187.26 175.088C188.232 175.035 189.94 175.201 189.84 173.84C189.03 172.558 186.72 173.308 185.368 172.971C184.183 172.961 181.174 172.083 181.025 173.882Z" fill="#212121"/><path d="M166.884 187.367C167.28 187.689 167.479 188.542 167.808 189.032C168.047 189.394 168.356 189.558 168.859 189.158C168.963 189.023 169.13 188.78 169.337 188.455C170.618 186.445 173.408 181.388 171.784 181.075C169.422 179.147 170.393 176.062 173.617 177.294C174.046 177.503 174.493 177.732 174.891 177.354C176.466 175.609 178.147 173.384 177.63 170.882C180.667 170.913 183.726 169.775 185.892 167.633C189.084 169.471 193.451 170.323 196.622 168.005C198.479 169.173 200.415 170.384 202.458 171.268C202.092 171.893 202.579 172.683 202.491 173.393C200.675 173.215 198.665 173.661 197.091 174.598C196.45 174.989 196.333 176.211 197.315 176.138C199.119 176.327 200.842 175.608 202.575 175.243C203.043 181.855 202.216 188.373 202.041 194.967C201.979 199.107 203.903 205.042 197.241 202.305C195.376 201.726 193.907 200.209 192.272 199.425C191.234 199.805 191.173 201.297 190.71 202.189C189.974 204.342 189.28 206.509 188.607 208.686C188.465 209.14 188.327 209.599 188.186 210.054C188.023 210.595 187.858 211.133 187.695 211.675C187.54 212.178 187.391 212.682 187.231 213.189C187.06 213.746 186.878 214.302 186.677 214.849C186.445 215.803 187.586 215.973 187.969 215.184C187.978 215.169 187.986 215.158 187.991 215.143C189.559 210.585 190.741 205.864 192.474 201.366C199.227 206.067 204.933 205.73 203.381 196.074C203.48 187.96 204.56 179.862 203.67 171.744C206.728 172.852 210.7 173.03 213.42 171.007C217.407 166.078 213.973 161.959 208.149 162.347C205.788 157.255 199.351 156.712 194.508 158.04C189.948 154.714 182.946 154.846 179.447 159.624C174.62 159.109 170.618 163.908 170.59 168.437C167.289 169.446 165.675 173.228 165.892 176.458C164.743 177.023 164.513 178.387 164.416 179.529C163.983 182.335 165.122 185.233 166.884 187.367Z" fill="#212121"/><path d="M162.478 204.654C162.431 204.739 162.38 204.828 162.333 204.913C162.351 204.922 162.374 204.927 162.397 204.921C162.879 204.891 164.109 202.614 165.409 199.678C165.625 199.201 165.838 198.704 166.049 198.196C167.537 194.671 168.966 190.645 169.343 188.455C169.588 187.019 169.38 186.376 168.435 187.189C168.222 187.805 168.017 188.416 167.813 189.032C166.233 193.73 164.717 198.463 162.357 202.844C162.562 202.757 162.74 202.737 162.888 202.768C163.256 202.832 163.43 203.198 163.368 203.55C163.333 203.754 163.218 203.951 163.014 204.084C163.01 204.088 163.01 204.091 163.006 204.088C162.97 204.112 162.93 204.137 162.887 204.153C162.84 204.174 162.793 204.19 162.738 204.206C162.652 204.369 162.559 204.521 162.478 204.654Z" fill="#212121"/><path d="M185.032 220.362C185.041 220.397 185.055 220.428 185.068 220.459C185.261 219.981 185.451 219.498 185.637 219.012C185.611 218.934 185.592 218.86 185.592 218.787C185.583 218.549 185.688 218.326 185.856 218.156C185.876 218.13 185.905 218.109 185.932 218.088C186.179 217.88 186.518 217.789 186.783 217.915C186.802 217.924 186.82 217.933 186.839 217.945C186.924 217.996 187 218.073 187.063 218.18C187.192 217.216 188.294 216.094 187.975 215.184C187.955 215.125 187.928 215.066 187.893 215.007C188.003 214.447 188.328 213.819 188.072 213.265C187.864 212.958 187.501 212.994 187.236 213.19C187.072 213.306 186.95 213.487 186.927 213.684C186.36 215.84 185.506 217.91 185.033 220.09C185.015 220.192 185.013 220.284 185.032 220.362Z" fill="#212121"/><path d="M188.437 210.189C192.725 208.689 176.168 203.112 174.986 202.115C172.202 200.487 169.092 199.502 166.138 198.245C165.464 197.842 164.621 198.653 164.804 199.362C172.282 203.334 180.948 205.938 188.437 210.189Z" fill="#212121"/><path d="M185.473 210.344C185.933 209.788 186.406 209.193 186.734 208.556C186.689 205.956 182.935 211.594 185.473 210.344Z" fill="#212121"/><path d="M181.195 207.978C181.59 207.561 182.343 206.497 181.908 205.949C180.935 205.009 179.363 209.155 181.195 207.978Z" fill="#212121"/><path d="M176.258 206.294C176.898 205.845 178.285 203.364 176.608 203.767C176.11 204.218 174.467 207.008 176.258 206.294Z" fill="#212121"/><path d="M171.266 204.009C173.053 203.599 173.415 200.117 171.696 201.775C171.622 202.443 169.718 203.91 171.266 204.009Z" fill="#212121"/><path d="M167.696 202.511C168.211 202.009 169.043 200.096 167.865 199.968C167.341 199.958 167.163 200.474 167.121 200.906C166.619 201.641 166.296 203.378 167.696 202.511Z" fill="#212121"/><path d="M187.805 339.16C187.808 339.168 187.808 339.172 187.811 339.179C189.788 345.918 192.264 352.517 194.792 359.066C195.686 362.864 196.754 366.576 198.421 370.098C198.951 371.915 201.003 378.884 202.859 374.247C204.02 377.219 205.652 375.822 205.77 373.338C207.077 376.311 209.238 375.771 208.868 372.524C208.557 369.643 207.291 367.029 206.488 364.285C203.603 354.846 201.689 345.069 199.518 335.435C199.342 335.489 199.17 335.544 198.99 335.595C198.694 335.681 198.39 335.763 198.089 335.841C198.092 335.864 198.098 335.884 198.101 335.907C199.714 344.66 202.213 353.223 204.18 361.897C205.29 365.883 207.47 369.596 207.666 373.728C206.808 373.035 205.98 369.428 205.055 369.899C203.978 370.923 204.918 372.948 204.435 374.32C203.524 372.836 203.025 371.085 202.174 369.628C201.693 369.385 201.154 369.939 201.203 370.413C201.44 371.735 201.831 373.132 201.576 374.467C199.332 369.405 197.452 364.103 196.269 358.677C194.028 351.931 191.091 345.347 189.374 338.444C189.291 338.482 189.196 338.526 189.09 338.573C188.66 338.77 188.234 338.967 187.805 339.16Z" fill="#212121"/><path d="M4.45416 339.588C4.60214 340.465 5.4144 341.473 6.20378 340.501C8.18997 337.839 10.1845 335.227 12.7142 333.044C26.329 338.65 39.7122 344.939 53.4775 350.202C57.2258 352.238 61.172 353.845 65.1823 355.272C70.4382 357.442 76.0617 359.629 81.6179 357.132C92.2406 353.748 97.4295 339.962 104.64 331.892C110.097 323.153 116.247 314.844 122.334 306.551C125.041 303.177 127.314 298.948 130.924 296.537C133.393 298.785 127.29 309.063 126.274 312.057C121.787 322.184 117.281 332.298 112.338 342.219C109.098 348.803 106.76 356.358 101.545 361.682C93.301 365.779 83.9542 367.492 74.9879 369.315C64.0981 370.51 53.3017 372.598 42.3803 373.286C41.1234 373.324 41.1074 374.972 40.771 375.871C40.2736 378.268 39.1099 379.535 42.621 378.871C38.878 390.178 38.8769 410.973 47.5217 386.457C65.4142 388.727 83.4501 391.629 101.308 387.741C116.212 386.014 122.622 381.838 131.534 369.929C137.221 362.176 140.761 352.766 144.829 344.031C151.638 329.841 158.83 315.851 164.378 301.11C164.382 301.102 164.382 301.099 164.387 301.091C164.362 301.044 164.342 300.993 164.331 300.939C162.14 300.21 160.52 298.119 158.57 296.896C157.651 296.283 156.727 295.675 155.778 295.103C155.463 294.916 155.144 294.73 154.821 294.55C154.783 294.532 154.746 294.515 154.705 294.493C154.664 294.472 154.623 294.454 154.582 294.437C154.582 294.437 154.582 294.433 154.579 294.433C154.512 294.398 154.441 294.363 154.37 294.329C153.74 294.013 153.127 293.594 153.501 292.786C145.585 288.131 137.853 283.17 129.925 278.538L129.921 278.537C129.755 278.631 129.56 278.67 129.382 278.644C129.361 278.662 129.341 278.68 129.317 278.694C129.237 278.75 129.151 278.787 129.053 278.808C128.773 278.872 128.424 278.806 128.049 278.666L128.045 278.665C127.966 278.638 127.884 278.602 127.798 278.563C127.794 278.563 127.794 278.563 127.794 278.563C127.626 278.484 127.454 278.401 127.279 278.307C127.194 278.26 127.108 278.209 127.019 278.162C126.979 278.136 126.934 278.111 126.889 278.085C126.804 278.035 126.719 277.98 126.634 277.929C126.63 277.929 126.63 277.929 126.63 277.929C126.504 277.849 126.379 277.769 126.256 277.693C126.135 277.613 126.016 277.537 125.902 277.462C125.824 277.411 125.75 277.365 125.68 277.319C125.428 277.155 125.206 277.015 125.035 276.925C121.267 274.709 117.345 272.754 113.585 270.527C113.545 270.555 113.505 270.58 113.465 270.6C113.426 270.617 113.386 270.634 113.352 270.643C113.312 270.656 113.274 270.662 113.235 270.667C113.196 270.676 113.158 270.678 113.119 270.672L113.108 270.671C112.895 270.647 112.707 270.506 112.522 270.327C112.373 270.184 112.225 270.019 112.073 269.868C111.964 269.763 111.847 269.664 111.724 269.596C111.71 269.587 111.695 269.579 111.68 269.57C106.503 278.83 101.875 288.41 96.475 297.542C96.6574 292.72 96.2856 287.801 97.1328 283.029C97.1386 282.995 97.1444 282.965 97.1499 282.931C96.7196 282.875 96.2893 282.823 95.8546 282.775C95.8488 282.809 95.8472 282.84 95.8412 282.874C94.6377 291.96 94.9563 301.196 94.8886 310.348C94.8777 314.53 94.4782 318.734 93.4691 322.796C93.3209 323.228 93.3803 323.981 92.7902 324.035C92.7544 323.925 92.75 323.742 92.7636 323.505C92.8665 321.747 94.0028 317.088 92.0073 318.992C91.3518 320.622 91.334 322.496 90.4912 324.047C90.2868 322.428 90.5553 320.794 90.5116 319.177C89.2838 317.211 88.2283 320.888 87.9219 321.861C87.7295 322.263 87.5594 323.661 86.9811 323.513C86.1034 321.989 86.7568 320.003 86.797 318.333C86.8819 314.852 86.8287 311.371 86.8562 307.887C86.5059 299.124 84.473 290.4 84.7179 281.629L84.7197 281.599C84.2011 281.545 83.6829 281.485 83.162 281.405C83.159 281.454 83.1597 281.508 83.1606 281.558C82.9435 292.871 85.7052 304.085 85.3114 315.4C82.6253 320.256 80.1282 325.421 76.763 329.882C74.0482 334.308 67.951 333.861 63.604 333.202C46.0391 329.333 28.6553 324.204 11.3725 319.187C9.2885 318.014 9.17126 321.003 8.58858 322.304C8.41748 322.933 7.79643 323.578 8.11852 324.24C8.48361 324.621 9.13751 324.594 9.55162 324.989C8.11551 328.288 6.6017 331.597 5.57069 335.054C5.24074 336.569 4.48793 338.025 4.45416 339.588Z" fill="#212121"/><path d="M154.368 294.328C154.439 294.363 154.51 294.398 154.577 294.432C154.581 294.433 154.58 294.436 154.58 294.436C154.663 294.472 154.745 294.511 154.819 294.546C155.143 294.725 155.462 294.912 155.777 295.103C156.725 295.675 157.649 296.283 158.569 296.895C160.519 298.119 162.138 300.21 164.329 300.938C164.34 301 164.356 301.059 164.376 301.11C165.756 305.138 179.483 274.807 180.762 272.881C177.204 294.403 176.01 318.603 185.973 338.342C185.723 339.804 186.766 339.62 187.816 339.18C188.276 338.989 188.739 338.748 189.094 338.573C189.201 338.526 189.295 338.482 189.378 338.444C191.461 337.414 193.77 337.032 195.869 336.033C196.521 336.301 197.308 336.163 198.106 335.907C198.403 335.817 198.701 335.708 198.995 335.595C199.556 335.383 200.103 335.162 200.585 335.041C201.021 335.258 201.721 334.782 201.666 334.277C201.87 333.949 201.904 333.553 201.585 333.243C200.655 326.589 198.72 320.052 198.73 313.261C198.824 300.437 200.992 287.73 202.61 275.037C204.179 262.662 207.518 249.205 202.066 237.347C197.64 230.684 191.575 224.975 187.143 218.491C187.135 218.368 187.107 218.263 187.062 218.18C187.01 218.07 186.931 217.993 186.837 217.945C186.819 217.933 186.8 217.924 186.782 217.915C186.523 217.812 186.181 217.892 185.931 218.088C185.903 218.109 185.875 218.13 185.854 218.156C185.68 218.318 185.571 218.537 185.591 218.787C185.591 218.86 185.609 218.934 185.635 219.012C185.436 219.463 185.234 219.91 185.031 220.361C174.301 244.378 163.252 268.414 153.499 292.786C153.126 293.594 153.738 294.012 154.368 294.328Z" fill="#4CAF50"/><path d="M81.8099 275.12C82.2282 261.225 87.9951 248.119 96.2383 237.078C104.284 225.876 110.86 213.039 121.897 204.354C132.924 195.365 146.953 203.54 159.272 203.496C160.327 203.427 161.32 203.037 162.352 202.845C162.527 202.813 162.705 202.789 162.883 202.769C162.894 202.769 162.902 202.766 162.913 202.767C163.338 202.849 163.451 203.207 163.362 203.55C163.312 203.758 163.185 203.961 163.009 204.085C163.005 204.088 163.004 204.092 163.001 204.088C162.965 204.113 162.925 204.137 162.882 204.154C162.835 204.174 162.787 204.19 162.733 204.206C162.619 204.444 162.505 204.683 162.392 204.921C154.854 220.694 148.07 236.874 140.586 252.7C136.803 261.166 134.219 270.363 129.919 278.538L129.915 278.538C129.749 278.631 129.554 278.67 129.376 278.644C129.356 278.662 129.335 278.68 129.311 278.694C129.231 278.75 129.145 278.787 129.048 278.808C128.764 278.872 128.418 278.806 128.043 278.666L128.039 278.665C127.956 278.634 127.874 278.598 127.792 278.563C127.788 278.563 127.788 278.563 127.788 278.563C127.62 278.484 127.448 278.401 127.273 278.307C127.188 278.26 127.103 278.209 127.014 278.162C126.973 278.137 126.928 278.111 126.884 278.085C126.798 278.035 126.713 277.98 126.628 277.929C126.624 277.929 126.624 277.929 126.624 277.929C126.498 277.849 126.373 277.769 126.251 277.693C126.129 277.613 126.01 277.537 125.896 277.462C125.818 277.411 125.744 277.365 125.674 277.319C125.423 277.155 125.201 277.015 125.029 276.925C121.261 274.709 117.339 272.755 113.579 270.527C113.539 270.555 113.499 270.58 113.459 270.6C113.42 270.617 113.381 270.634 113.346 270.643C113.307 270.656 113.268 270.662 113.229 270.667C113.19 270.672 113.152 270.674 113.113 270.672L113.102 270.671C112.865 270.657 112.631 270.533 112.516 270.327C112.485 270.276 112.461 270.217 112.449 270.155C112.34 270.049 112.2 269.957 112.067 269.869C111.938 269.785 111.812 269.697 111.719 269.596C111.57 269.438 111.498 269.239 111.603 268.943C112.562 263.776 115.844 258.572 117.685 253.471C121.046 246.332 123.547 238.798 127.506 231.939C114.468 247.204 102.208 256.083 99.4911 277.443C98.6717 281.807 98.563 283.01 97.1269 283.03C96.781 283.037 96.3627 282.974 95.8353 282.874C94.6101 282.635 92.8107 282.174 90.083 281.843C87.731 281.645 85.9888 281.65 84.7122 281.63C84.0872 281.624 83.5742 281.606 83.1549 281.558C81.0673 281.318 81.3239 280.273 81.8099 275.12ZM113.402 268.385C113.384 268.422 113.371 268.456 113.357 268.489C113.38 268.483 113.404 268.481 113.431 268.478C113.425 268.448 113.411 268.416 113.402 268.385Z" fill="#4CAF50"/><path d="M225.571 139.937C227.246 141.087 228.724 142.447 230.144 143.88C231.359 145.413 233.634 146.857 233.272 148.975C233.36 149.248 233.677 149.404 233.935 149.255C236.781 146.834 228.276 140.003 226.191 138.722C225.521 138.43 225.023 139.545 225.571 139.937Z" fill="#212121"/><path d="M227.266 133.623C229.919 134.834 232.258 136.692 233.894 139.083C233.64 139.5 233.924 140.075 234.439 139.998C236.894 139.227 232.439 135.038 231.47 134.289C230.764 133.494 225.818 130.815 227.266 133.623Z" fill="#212121"/><path d="M203.454 167.283C204.925 167.122 203.879 165.477 203.357 164.824C202.939 164.328 201.92 164.84 202.218 165.477C202.636 166.029 202.661 167.197 203.454 167.283Z" fill="white"/><path d="M200.6 166.359C201.859 166.077 200.808 163.638 199.782 164.71C199.39 165.227 199.815 166.566 200.6 166.359Z" fill="white"/><path d="M190.722 164.433C191.525 163.884 190.575 163.014 190.196 162.494C189.785 162.007 188.776 162.511 189.076 163.134C189.42 163.778 189.77 165.027 190.722 164.433Z" fill="white"/><path d="M187.725 163.948C187.863 163.353 187.297 162.86 186.949 162.441C186.509 161.94 185.482 162.449 185.783 163.108C186.002 163.968 187.101 165.139 187.725 163.948Z" fill="white"/><path d="M182.366 165.933C183.993 165.412 182.639 164.518 181.793 164.076C181.248 163.781 180.388 164.512 180.915 165.029C181.326 165.409 181.744 165.974 182.366 165.933Z" fill="white"/><path d="M130.885 229.191C131.809 228.139 132.753 227.107 133.768 226.139C134.186 225.574 136.058 224.487 135.133 223.782C133.642 223.104 130.688 228.339 129.231 229.106C128.756 229.373 128.976 230.059 129.503 230.02C130.058 230.052 130.534 229.574 130.885 229.191Z" fill="white"/><path d="M151.411 222.075C153.125 221.663 151.236 217.237 151.09 215.926C159.885 216.401 151.469 212.78 149.277 210.296C151.721 208.318 154.59 206.737 156.939 204.718C157.206 202.123 149.273 208.985 148.256 209.461C145.919 210.975 151.553 213.781 152.598 214.761C150.02 214.685 148.813 214.185 149.971 217.329C150.53 218.306 150.253 222.331 151.411 222.075Z" fill="white"/><path d="M182.505 237.066C185.966 234.646 188.075 235.94 185.9 232.112C188.817 233.546 194.172 237.088 191.964 230.817C191.356 229.377 191.382 224.281 190.429 223.876C189.874 223.681 189.04 224.398 189.643 224.863C189.994 227.663 190.537 230.43 191.122 233.191C188.355 232.317 181.854 227.611 185.407 234.202C184.198 234.798 183.004 235.432 181.822 236.082C181.065 236.602 181.764 237.448 182.505 237.066Z" fill="white"/><path d="M182.378 270.051C185.786 264.121 189.196 258.136 192.459 252.111C193.301 251.301 192.22 250.34 191.486 251.217C189.47 254.78 187.67 258.479 185.579 262.007C185.264 262.9 179.42 271.363 182.378 270.051Z" fill="white"/><path d="M191.07 257.903C191.77 257.615 196.358 254.846 193.503 255.013C192.825 255.376 188.576 257.931 191.07 257.903Z" fill="white"/><path d="M192.976 260.974C193.444 259.738 190.313 259.956 189.707 260.248C189.016 260.963 190.224 261.238 190.744 261.198C191.467 261.179 192.502 261.763 192.976 260.974Z" fill="white"/><path d="M126.412 227.511C127.775 226.887 127.574 224.44 127.498 223.16C125.505 221.5 126.118 225.572 125.838 226.577C125.252 227.008 125.83 227.654 126.412 227.511Z" fill="white"/><path d="M123.478 229.582C124.547 225.921 121.861 225.158 122.162 229.364C121.609 230.312 123.302 230.429 123.478 229.582Z" fill="white"/><path d="M103.883 254.111C104.179 253.559 102.538 249.363 101.635 250C100.541 250.474 101.68 251.753 101.886 252.499C102.28 253.234 102.793 255.233 103.883 254.111Z" fill="white"/><path d="M101.434 255.503C103.697 255.095 99.9486 252.793 99.2648 252.256C98.7439 251.907 97.8218 252.599 98.357 253.124C99.4376 253.807 100.157 255.203 101.434 255.503Z" fill="white"/><path d="M87.8335 271.084C90.914 270.29 98.6287 272.211 99.6218 270.798C99.8301 270.064 98.5521 269.818 98.0881 270.118C93.8748 269.426 89.6271 269.978 85.4632 269.263C84.8813 269.235 84.1973 269.822 84.5173 270.423C85.3511 271.141 86.7733 270.917 87.8335 271.084Z" fill="white"/><path d="M184.742 328.786C188.964 327.402 193.135 325.75 197.523 324.957C199.612 325.13 199.309 323.101 197.644 323.716C196.846 323.689 179.251 328.071 184.742 328.786Z" fill="white"/><g clip-path="url(#clip0_1864_6743)"><path d="M371.16 288.462C371.58 278.819 371.094 269.143 371.424 259.489C371.531 256.405 371.603 253.314 371.461 250.228C371.492 249.67 371.219 248.911 371.782 248.55C372.741 248.325 373.76 248.917 374.744 248.967C386.151 249.912 397.486 251.546 408.959 251.694C420.096 252.262 431.48 252.639 442.25 249.258C447.957 240.804 448.092 230.121 449.619 220.286C449.619 220.286 450.743 214.562 453.307 174.199C453.437 166.455 454.385 156.811 450.272 150.192C438.612 140.134 414.658 141.696 399.943 142.602C399.943 142.592 399.951 142.575 399.953 142.565C399.96 142.377 399.961 142.226 400.025 142.024C400.077 141.859 400.033 141.688 400.029 141.535C415.373 140.235 431.872 140.225 446.339 146.105C456.182 150.847 454.324 164.269 454.205 173.862L454.205 173.885C454.205 173.885 454.211 173.942 454.202 174.1C454.202 174.132 454.202 174.165 454.201 174.196C454.2 174.196 454.199 174.196 454.197 174.196C454.004 177.795 452.274 209.228 450.352 220.358C449.064 230.035 448.843 240.459 443.46 248.901C455.489 245.964 456.6 232.067 457.752 221.57C457.752 221.57 458.649 213.634 461.575 175.165C462.155 164.687 462.688 152.105 454.106 144.671C438.075 135.541 417.492 135.882 399.525 135.956C399.514 135.76 399.877 135.525 399.821 135.319C399.786 135.193 399.913 135.069 399.909 134.949H399.93C413.937 134.613 428.242 135.03 441.843 138.69C446.181 139.992 450.697 141.199 454.436 143.856C463.511 151.421 463.108 164.518 462.435 175.383C462.435 175.383 462.435 175.385 462.435 175.388C462.433 175.412 462.432 175.436 462.43 175.46C462.43 175.46 462.43 175.46 462.43 175.46C462.307 177.229 460.052 209.508 458.605 221.683C457.712 229.808 457.199 238.766 451.479 245.006C449.629 247.234 447.162 248.833 444.374 249.609C430.205 254.585 415.076 252.993 400.365 252.409C399.245 262.63 398.791 272.896 398.35 283.167C414.494 284.211 430.81 284.821 446.723 281.363C454.937 280.006 463.379 278.551 470.719 274.415C478.12 270.36 479.62 261.561 481.367 254.012C483.572 243.804 484.417 233.425 485.083 223.025C485.169 218.783 485.695 210.337 487.074 176.675C487.441 169.241 487.378 162.615 487.04 155.58C486.393 145.342 486.021 133.491 478.063 125.971C458.854 109.911 423.723 108.519 399.544 108.566C399.529 108.379 399.509 108.187 399.458 107.999C399.415 107.844 399.777 107.652 399.777 107.497H399.839C424.301 107.458 462.003 108.983 480.228 126.91C487.001 134.919 487.306 146.107 487.956 156.095C488.287 162.956 486.665 216.335 485.911 223.178C484.988 238.347 483.657 253.521 478.133 267.753C468.605 294.118 432.043 289.173 409.355 290.479C402.258 290.687 395.203 289.594 388.11 289.656C388.032 289.656 387.953 289.658 387.877 289.658C387.782 289.66 387.689 289.66 387.594 289.662C383.249 289.664 378.891 289.961 374.554 289.668C374.515 289.666 374.476 289.664 374.434 289.66C373.626 289.604 372.817 289.526 372.011 289.422C371.37 289.537 370.97 289.073 371.16 288.462ZM415.503 289.16C434.419 288.493 465.356 291.285 475.417 271.495C468.099 279.166 456.614 280.344 446.702 282.254C430.787 285.753 414.469 285.046 398.319 284.033C398.253 285.658 398.047 287.274 397.853 288.887C403.725 289.385 409.617 289.484 415.503 289.16ZM373.606 288.46C373.95 288.489 374.294 288.51 374.639 288.528C375.117 288.557 375.594 288.578 376.072 288.596C376.425 288.609 376.777 288.619 377.132 288.627C377.662 288.64 378.192 288.646 378.724 288.648C379.04 288.652 379.355 288.652 379.671 288.652C380.385 288.65 381.098 288.644 381.814 288.633C382.133 288.629 382.455 288.623 382.775 288.617C383.315 288.609 383.858 288.598 384.398 288.588C384.72 288.58 385.039 288.574 385.361 288.567C385.91 288.557 386.458 288.547 387.009 288.539C387.355 288.532 387.7 288.528 388.046 288.526C388.597 288.518 389.15 288.516 389.7 288.516C389.973 288.516 390.245 288.518 390.515 288.52C391.187 288.524 391.86 288.534 392.532 288.557C392.841 288.563 393.153 288.574 393.462 288.588C394.198 288.617 394.937 288.66 395.673 288.718C395.986 288.739 396.298 288.766 396.609 288.796C396.702 288.803 396.797 288.813 396.89 288.821C397.216 287.226 397.341 285.576 397.436 283.948C396.405 283.892 395.374 283.832 394.345 283.768C394.056 283.75 393.769 283.731 393.481 283.713C392.775 283.665 392.072 283.616 391.367 283.564C391.121 283.546 390.876 283.527 390.633 283.509C389.806 283.447 388.981 283.379 388.154 283.306C387.879 283.284 387.605 283.261 387.329 283.236C386.642 283.174 385.957 283.11 385.27 283.042C384.992 283.015 384.716 282.989 384.437 282.96C383.707 282.885 382.979 282.809 382.249 282.727C381.979 282.698 381.707 282.667 381.434 282.636C380.77 282.559 380.104 282.479 379.44 282.396C379.164 282.363 378.885 282.328 378.609 282.293C377.86 282.196 377.112 282.095 376.365 281.99C376.124 281.957 375.882 281.924 375.641 281.887C375.198 281.825 374.754 281.759 374.311 281.693C373.905 281.66 373.5 281.608 373.1 281.538C373.067 281.534 373.036 281.528 373.005 281.522C372.758 281.478 372.515 281.427 372.271 281.369C372.279 282.314 372.279 283.257 372.267 284.202C372.261 284.831 372.246 285.46 372.226 286.087C372.201 286.836 372.166 287.585 372.119 288.334C372.613 288.384 373.111 288.427 373.606 288.46Z" fill="#212121"/><path d="M396.615 289.353C396.809 288.774 396.266 288.231 396.103 287.695C395.186 285.873 394.547 283.877 393.473 282.148C392.956 281.754 392.738 282.688 393.105 282.954C393.614 283.599 395.897 290.627 396.615 289.353Z" fill="#212121"/><path d="M393.439 289.514C394.195 289.019 391.238 283.879 391.071 282.628C390.613 280.772 389.53 281.681 390.167 282.212C390.614 283.154 392.474 289.863 393.439 289.514Z" fill="#212121"/><path d="M390.383 289.111C391.151 288.63 388.773 284.938 388.505 284.055C388.244 283.645 387.335 280.989 387 282.498C386.998 282.497 386.997 282.497 386.995 282.497C387.407 283.205 389.836 289.828 390.383 289.111Z" fill="#212121"/><path d="M384.189 282.397C384.235 282.49 384.319 282.688 384.435 282.96C384.957 284.192 386.097 286.963 387.007 288.539C387.343 289.119 387.644 289.535 387.875 289.657C387.92 289.682 387.961 289.694 388.001 289.694C388.04 289.694 388.075 289.682 388.108 289.655C388.129 289.641 388.147 289.62 388.164 289.593C388.291 289.257 388.211 288.894 388.044 288.526C387.755 287.885 387.203 287.229 387.027 286.661C386.811 286.42 385.984 284.324 385.268 283.043C384.781 282.172 384.346 281.677 384.189 282.397Z" fill="#212121"/><path d="M385.39 289.371C386.125 288.916 382.344 283.032 381.886 282.061C381.499 281.104 380.626 281.952 381.274 282.406C382.073 283.341 384.484 290.064 385.39 289.371Z" fill="#212121"/><path d="M382.902 288.935C381.917 286.423 380.3 284.113 379.065 281.69C378.69 280.836 377.865 281.508 378.434 282.019C378.972 282.597 382.387 291.391 382.902 288.935Z" fill="#212121"/><path d="M379.918 289.34C379.048 286.728 377.384 284.322 376.264 281.772C376.124 281.44 375.772 281.156 375.563 281.613C376.12 283.761 377.41 285.81 378.34 287.857C378.622 288.308 379.375 290.557 379.918 289.34Z" fill="#212121"/><path d="M376.867 289.413C377.818 288.951 376.345 287.433 376.126 286.781C375.667 286.351 373.184 280.104 372.796 281.815C372.796 281.815 372.795 281.815 372.795 281.815C373.385 283.603 374.486 285.265 375.237 287.022C375.773 287.768 376.021 289.012 376.867 289.413Z" fill="#212121"/><path d="M372.227 286.087C372.654 286.898 373.233 287.703 373.606 288.46C373.687 288.619 373.755 288.778 373.813 288.932C373.893 289.244 374.176 289.595 374.435 289.659C374.477 289.669 374.516 289.673 374.555 289.667C374.693 289.65 374.815 289.527 374.879 289.244C374.819 288.998 374.737 288.761 374.64 288.528C374.07 287.156 372.969 285.955 372.404 284.569C372.392 284.457 372.342 284.319 372.268 284.202C372.121 283.964 371.88 283.803 371.668 284.082C371.618 284.742 371.872 285.417 372.227 286.087Z" fill="#212121"/><path d="M370.406 115.235C370.672 114.026 369.893 109.388 371.714 109.683C381.054 108.817 390.368 107.513 399.779 107.496H399.841C399.847 107.651 399.853 107.806 399.859 107.961C400.228 116.937 400.053 139.668 400.03 141.535C400.072 141.531 400.113 141.526 400.154 141.522C400.156 141.681 400.156 141.84 400.156 141.999C400.156 142.191 400.154 142.383 400.152 142.575C400.105 142.581 400.059 142.587 400.012 142.593C390.956 143.792 381.832 144.132 372.731 144.735C372.345 144.931 371.848 144.644 372.036 144.066C370.903 140.472 371.51 136.645 371.044 132.95C370.501 127.058 370.305 121.159 370.406 115.235ZM372.219 139.156C372.221 140.637 372.386 142.164 372.857 143.582C373.669 143.549 374.48 143.511 375.292 143.474C375.575 143.462 375.857 143.45 376.138 143.435C376.699 143.408 377.26 143.381 377.819 143.353C378.13 143.336 378.441 143.32 378.751 143.303C379.543 143.26 380.333 143.216 381.125 143.169C381.417 143.152 381.712 143.134 382.005 143.115C382.737 143.07 383.467 143.025 384.198 142.975C384.453 142.956 384.707 142.94 384.963 142.921C385.843 142.862 386.724 142.798 387.605 142.73C387.881 142.707 388.155 142.686 388.432 142.663C389.242 142.6 390.055 142.531 390.865 142.461C391.152 142.434 391.439 142.41 391.725 142.383C392.554 142.309 393.381 142.23 394.208 142.148C394.474 142.123 394.74 142.096 395.006 142.067C395.831 141.985 396.656 141.898 397.481 141.807C397.719 141.78 397.958 141.754 398.195 141.727C398.49 141.694 398.785 141.661 399.08 141.626C399.102 139.742 399.005 137.854 398.993 135.956C397.925 135.977 396.856 136.004 395.786 136.032C395.541 136.041 395.295 136.047 395.048 136.055C394.083 136.084 393.117 136.115 392.152 136.146C391.865 136.156 391.579 136.164 391.292 136.175C390.379 136.206 389.467 136.237 388.555 136.268C388.275 136.278 387.996 136.286 387.716 136.297C386.811 136.325 385.905 136.354 385 136.381C384.74 136.389 384.48 136.396 384.22 136.402C383.315 136.429 382.407 136.451 381.502 136.47C381.244 136.474 380.986 136.48 380.731 136.484C380.04 136.497 379.351 136.507 378.662 136.513C378.388 136.517 378.111 136.519 377.837 136.521C377.004 136.528 376.173 136.528 375.34 136.523C375.067 136.521 374.795 136.519 374.523 136.515C373.737 136.509 372.953 136.495 372.17 136.476C372.172 136.515 372.172 136.556 372.174 136.596C372.19 137.091 372.203 137.588 372.211 138.083C372.217 138.44 372.219 138.799 372.219 139.156Z" fill="#212121"/><path d="M398.1 142.602C399.009 142.186 395.794 136.499 395.542 135.358C395.541 135.359 395.54 135.36 395.54 135.361C393.99 134.263 395.891 138.194 396.085 138.631C396.505 139.597 396.878 140.584 397.359 141.522C397.576 141.841 397.557 142.731 398.1 142.602Z" fill="#212121"/><path d="M394.842 142.803C395.792 142.142 392.796 137.704 392.408 136.653C392.172 136.242 391.537 134.595 391.129 135.665C391.205 136.194 391.586 136.665 391.781 137.164C392.654 138.948 393.625 140.62 394.33 142.463C394.383 142.684 394.606 142.9 394.842 142.803Z" fill="#212121"/><path d="M391.49 143.28C392.678 143.014 390.055 139.318 389.727 138.61C389.234 138.175 388.182 134.64 387.581 135.401C387.404 135.673 387.593 135.983 387.693 136.248C388.49 138.26 389.696 140.065 390.65 142C390.928 142.396 390.955 143.169 391.49 143.28Z" fill="#212121"/><path d="M388.379 143.489C389.21 142.608 385.508 137.726 385.04 136.449C384.813 136.101 384.686 135.649 384.349 135.393C383.767 135.246 383.954 136.026 384.163 136.283C385.257 138.647 386.727 140.805 387.813 143.171C387.882 143.407 388.129 143.645 388.379 143.489Z" fill="#212121"/><path d="M384.89 143.566C385.757 143.007 381.708 137.193 381.27 135.978C380.623 134.471 379.825 135.445 380.442 135.935C381.699 138.327 382.895 140.756 384.262 143.088C384.35 143.351 384.559 143.754 384.89 143.566Z" fill="#212121"/><path d="M382.148 143.598C381.806 142.179 380.776 140.9 380.15 139.557C379.952 139.171 377.371 133.262 377.514 135.909C377.502 135.898 377.496 135.883 377.486 135.87C377.996 136.497 381.504 145.563 382.148 143.598Z" fill="#212121"/><path d="M378.471 144.119C378.989 144.036 378.863 143.403 378.628 143.095C377.782 141.479 376.977 139.867 376.18 138.238C375.599 137.363 375.355 136.088 374.543 135.443C374.222 135.426 374.095 135.885 374.318 136.079C375.471 138.566 376.559 141.087 377.888 143.487C378.035 143.719 378.138 144.129 378.471 144.119Z" fill="#212121"/><path d="M376.071 144.197C376.951 143.607 373.516 139.213 373.155 138.203C372.736 137.613 372.511 136.741 371.886 136.359C371.044 136.555 372.035 137.549 372.171 138.004C373.12 139.997 374.373 141.803 375.432 143.725C375.512 143.992 375.748 144.382 376.071 144.197Z" fill="#212121"/><path d="M285.786 254.626C292.32 258.105 298.833 261.571 305.451 264.882C315.208 269.549 325.829 275.392 336.754 275.896C342.077 273.55 337.267 264.684 335.719 260.983C339.942 263.172 344.358 264.967 348.712 266.878C350.634 267.482 356.689 271.662 355.631 267.078C355.662 266.283 353.222 261.379 352.405 262.178C347.014 256.952 339.775 253.877 332.534 252.21C325.516 250.634 322.346 252.283 323.682 259.908C317.625 257.535 311.422 255.555 305.214 253.62C295.795 251.183 286.019 246.858 276.273 247.273C274.534 250.203 283.852 253.351 285.786 254.626Z" fill="#212121"/><path d="M280.292 116.77C285.47 120.651 291.795 122.803 297.618 125.557C309.208 130.678 321.393 134.749 333.717 137.617C336.318 135.009 332.938 126.587 331.397 123.68C338.411 126.457 345.263 130.094 352.679 131.617C357.913 133.012 351.396 126.645 350.06 125.78C342.573 121.231 329.539 112.757 320.854 117.189C319.289 119.12 320.493 121.897 320.852 124.078C308.377 120.102 295.518 117.28 282.686 114.697C280.417 114.249 277.305 113.717 280.292 116.77Z" fill="#212121"/></g><defs><clipPath id="clip0_1864_6743"><rect width="211.942" height="183.009" fill="white" transform="matrix(-1 0 0 1 488 107.496)"/></clipPath></defs></svg>